<?xml version="1.0" encoding="UTF-8"?>
<svg version="1.1" xmlns="http://www.w3.org/2000/svg" width="1024" height="1536">
<path d="M0 0 C337.92 0 675.84 0 1024 0 C1024 506.88 1024 1013.76 1024 1536 C686.08 1536 348.16 1536 0 1536 C0 1029.12 0 522.24 0 0 Z " fill="#FDFDFD" transform="translate(0,0)"/>
<path d="M0 0 C6.38142701 5.0024657 11.32452896 10.76837164 15.31201172 17.79785156 C15.86888672 18.72597656 16.42576172 19.65410156 16.99951172 20.61035156 C23.39446644 36.14095589 22.51065823 52.52655707 16.43408203 68.0390625 C13.64119073 74.41915363 10.50407827 80.58497116 6.06201172 85.98535156 C-2.06223892 96.17396096 -1.512408 109.6727675 -0.40283203 121.95410156 C2.38366746 142.08182602 11.90406795 158.95179844 24.60742188 174.37011719 C33.4861196 185.19303069 40.69324677 197.15190121 44.31201172 210.79785156 C44.48756592 211.44165771 44.66312012 212.08546387 44.84399414 212.7487793 C46.88018653 221.3965166 46.7509111 230.15097632 46.74951172 238.98535156 C46.75091156 239.82700867 46.7523114 240.66866577 46.75375366 241.53582764 C46.72850767 260.01018713 44.31222508 276.96623384 36.31201172 293.79785156 C21.27569183 327.02167979 7.3198292 365.46573053 20.31201172 401.79785156 C20.8266004 403.32380363 21.34090709 404.84985082 21.85498047 406.37597656 C35.11745083 444.71734805 59.94536148 475.87405274 90.5078125 502.21850586 C104.51791017 514.48255482 122.68603785 532.14982065 124.57373047 551.47753906 C124.8281765 557.81236788 124.18403355 562.66415969 120.31201172 567.79785156 C108.02972785 581.05837043 89.15204521 583.12235145 71.89306641 583.90795898 C66.68172971 584.0455571 61.47197688 584.04004516 56.25927734 584.00366211 C53.57884044 583.98546581 50.89875398 583.98315315 48.21826172 583.98339844 C39.23463725 583.96542133 30.27022757 583.77669699 21.29638672 583.34863281 C20.0515451 583.29088936 20.0515451 583.29088936 18.78155518 583.23197937 C14.85691071 583.02466242 11.15896256 582.64639322 7.31201172 581.79785156 C5.97071751 581.6738234 4.62633629 581.57890896 3.28076172 581.51660156 C2.18828125 581.46052734 2.18828125 581.46052734 1.07373047 581.40332031 C-0.04582031 581.35111328 -0.04582031 581.35111328 -1.18798828 581.29785156 C-5.80348051 581.08262135 -10.15705005 580.73916276 -14.68798828 579.79785156 C-17.62035758 579.45286694 -20.56065797 579.19565209 -23.50048828 578.92285156 C-25.3052816 578.73899147 -27.10996495 578.55404961 -28.91455078 578.36816406 C-32.76094867 577.97604917 -36.6064876 577.64767261 -40.46142578 577.35253906 C-56.24589681 575.97426924 -69.28920567 571.21013902 -83.68798828 564.79785156 C-87.91006933 562.94786601 -92.140071 561.11708471 -96.37548828 559.29785156 C-97.97324097 558.60743774 -97.97324097 558.60743774 -99.60327148 557.90307617 C-107.8429034 554.41035538 -116.23007225 551.56916931 -124.75048828 548.86035156 C-138.77055976 544.39376404 -151.63137291 538.56626076 -164.68798828 531.79785156 C-154.84538526 537.17289009 -144.90003866 542.16259465 -134.68798828 546.79785156 C-138.42560327 548.04372323 -139.65749197 547.37102504 -143.37548828 546.17285156 C-149.86533057 544.24055766 -156.37296613 542.68488272 -163.00048828 541.29785156 C-164.02126465 541.08418945 -165.04204102 540.87052734 -166.09375 540.65039062 C-172.48165561 539.35205993 -178.87110258 538.30076154 -185.32348633 537.38110352 C-211.95189839 533.54021137 -238.79782193 522.36834997 -256.68017578 501.51660156 C-264.65651709 490.71595263 -267.80434106 481.13206531 -266.68798828 467.79785156 C-264.40459186 458.71390493 -260.03622707 453.05734754 -252.18798828 448.17285156 C-240.47872874 441.70569362 -227.79228974 439.53234482 -214.68798828 437.79785156 C-213.65593262 437.65959961 -212.62387695 437.52134766 -211.56054688 437.37890625 C-167.54723904 431.71338384 -124.10922706 433.39671403 -82.68701172 450.64672852 C-75.94295016 453.33664294 -69.59256808 453.91643994 -62.46142578 452.29003906 C-45.08078298 449.20558696 -32.13440507 453.34463171 -17.89111328 463.22363281 C-17.16408203 463.743125 -16.43705078 464.26261719 -15.68798828 464.79785156 C-18.98719619 461.30668974 -22.20420411 458.65170482 -26.31298828 456.17285156 C-29.48620919 454.25153151 -32.12400926 452.46629244 -34.68798828 449.79785156 C-25.65717848 450.19138613 -17.09083608 451.82093241 -8.34277344 453.96166992 C-6.19464467 454.48373385 -4.04163243 454.98023967 -1.88720703 455.47558594 C8.9766006 458.05200856 19.18380588 461.5834147 27.81201172 468.98535156 C28.58544922 469.63890625 29.35888672 470.29246094 30.15576172 470.96582031 C30.86732422 471.57039063 31.57888672 472.17496094 32.31201172 472.79785156 C33.63767914 473.80799198 34.96848893 474.8115837 36.31201172 475.79785156 C26.35093195 464.65092896 14.97641327 457.04376616 0.31201172 453.79785156 C-0.60080566 453.5917627 -1.51362305 453.38567383 -2.45410156 453.17333984 C-13.88337064 450.63611817 -25.1714151 448.31622216 -36.89501953 447.93847656 C-39.35325409 447.81470531 -41.32248874 447.39395745 -43.68798828 446.79785156 C-45.49864419 446.70610447 -47.31251639 446.66782251 -49.12548828 446.67285156 C-50.51574219 446.66898438 -50.51574219 446.66898438 -51.93408203 446.66503906 C-54.62735489 446.72296404 -54.62735489 446.72296404 -56.97705078 447.27441406 C-68.92210954 449.58080869 -79.50437018 448.51848848 -90.09814453 442.62207031 C-92.68798828 440.79785156 -92.68798828 440.79785156 -94.68798828 437.79785156 C-94.91845703 434.87207031 -94.91845703 434.87207031 -94.87548828 431.48535156 C-94.86582031 429.82052734 -94.86582031 429.82052734 -94.85595703 428.12207031 C-94.68798828 424.79785156 -94.68798828 424.79785156 -94.18408203 421.99707031 C-93.50637325 417.62664912 -93.543306 413.33824287 -93.56298828 408.92285156 C-93.55912109 408.06304688 -93.55525391 407.20324219 -93.55126953 406.31738281 C-93.55925587 401.05438541 -93.92672073 396.00588832 -94.68798828 390.79785156 C-89.57605424 388.1472191 -84.4721508 385.85392566 -79.08251953 383.82519531 C-74.09689681 381.6861761 -71.24934748 379.76354784 -68.56298828 374.98535156 C-68.08603516 374.15390625 -67.60908203 373.32246094 -67.11767578 372.46582031 C-65.6339361 369.77718173 -65.6339361 369.77718173 -64.35986328 366.79785156 C-62.38729507 363.25828992 -60.13885359 361.23715643 -57.06298828 358.61035156 C-51.24850998 353.48694549 -46.41811521 347.94785674 -41.68798828 341.79785156 C-40.91068359 340.81300781 -40.13337891 339.82816406 -39.33251953 338.81347656 C-24.77924426 320.21119784 -13.04774634 300.99307085 -2.68798828 279.79785156 C-1.27168158 276.96523816 0.45698465 276.78077324 3.37451172 275.67285156 C4.29361328 275.31964844 5.21271484 274.96644531 6.15966797 274.60253906 C6.86994141 274.33699219 7.58021484 274.07144531 8.31201172 273.79785156 C7.32201172 274.12785156 6.33201172 274.45785156 5.31201172 274.79785156 C3.31527687 275.15021653 1.31550433 275.48619716 -0.68798828 275.79785156 C0.65961818 270.87871976 2.74153273 267.55082311 5.87451172 263.54785156 C8.86049772 259.84219435 8.86049772 259.84219435 11.31201172 255.79785156 C1.51941546 266.2344054 -5.59804178 277.21992974 -12.49658203 289.65380859 C-19.41037648 302.09580508 -26.90002866 313.59148728 -35.68798828 324.79785156 C-36.35958984 325.66023438 -37.03119141 326.52261719 -37.72314453 327.41113281 C-38.83358453 328.83522785 -39.94669775 330.25724413 -41.06298828 331.67675781 C-42.91444797 334.09344679 -44.67288014 336.56744759 -46.43798828 339.04785156 C-49.61423488 343.44000506 -52.95401161 347.64915352 -56.43798828 351.79785156 C-56.89786133 352.34989258 -57.35773438 352.90193359 -57.83154297 353.47070312 C-60.22834403 356.28995564 -62.53813762 358.82577115 -65.68798828 360.79785156 C-66.34798828 360.79785156 -67.00798828 360.79785156 -67.68798828 360.79785156 C-67.80916016 361.35730469 -67.93033203 361.91675781 -68.05517578 362.49316406 C-68.75392304 365.03798433 -69.68947725 367.28446056 -70.81298828 369.67285156 C-71.18681641 370.49527344 -71.56064453 371.31769531 -71.94580078 372.16503906 C-76.81918751 379.52975353 -84.25586927 382.87646331 -92.06298828 386.48535156 C-93.15281006 386.99791504 -94.24263184 387.51047852 -95.36547852 388.03857422 C-112.2167859 395.91500459 -129.14609286 403.5839513 -146.68798828 409.79785156 C-148.04889314 410.29071266 -149.40956366 410.78422121 -150.77001953 411.27832031 C-163.76049414 415.96471919 -176.87504117 420.34336042 -190.25048828 423.79785156 C-195.84000228 425.24341553 -201.28765297 426.9426357 -206.75048828 428.79785156 C-215.65907614 431.82099604 -224.60768064 434.58304887 -233.75830078 436.79003906 C-234.44762695 436.95648926 -235.13695312 437.12293945 -235.84716797 437.29443359 C-237.23523851 437.62864675 -238.62390992 437.96037464 -240.01318359 438.28955078 C-243.76260539 439.20824107 -247.10020341 440.35810774 -250.56298828 442.04785156 C-264.12524759 447.76660424 -286.20224542 443.82941582 -299.62548828 438.92285156 C-303.4611112 437.17136357 -305.99775843 435.02612738 -308.68798828 431.79785156 C-301.30403155 431.67269975 -294.04319761 432.16123375 -286.68798828 432.79785156 C-287.43048828 432.40597656 -288.17298828 432.01410156 -288.93798828 431.61035156 C-294.4209689 427.99656888 -296.24046352 423.97513994 -297.87548828 417.73535156 C-298.19904297 416.5275 -298.52259766 415.31964844 -298.85595703 414.07519531 C-300.1407944 409.01426313 -300.1407944 409.01426313 -300.68798828 406.79785156 C-296.32229861 407.52546651 -294.71588366 409.5788192 -292.00048828 412.89160156 C-290.29597746 415.36720061 -289.57638749 417.94228266 -288.68798828 420.79785156 C-286.68863134 423.13316614 -286.68863134 423.13316614 -284.68798828 424.79785156 C-285.01798828 424.13785156 -285.34798828 423.47785156 -285.68798828 422.79785156 C-285.70438341 420.617852 -285.65213604 418.43718315 -285.56689453 416.25878906 C-285.51855469 414.95683594 -285.47021484 413.65488281 -285.42041016 412.31347656 C-285.36388434 410.93326352 -285.3072422 409.55305524 -285.25048828 408.17285156 C-285.19726535 406.78484938 -285.14452496 405.3968286 -285.09228516 404.00878906 C-284.96227666 400.60493015 -284.82729945 397.2013404 -284.68798828 393.79785156 C-282.68798828 393.79785156 -282.68798828 393.79785156 -281.25048828 395.16894531 C-276.69850632 401.18894145 -275.81881395 406.60198907 -275.35791016 413.9440918 C-275.10512714 418.12985071 -275.10512714 418.12985071 -273.27392578 421.80957031 C-271.68975596 422.99964258 -271.68975596 422.99964258 -269.50048828 422.73535156 C-263.1663384 420.62396827 -257.43402477 417.14970618 -251.68798828 413.79785156 C-256.02394331 407.53480541 -259.47561056 405.97367255 -266.69970703 403.89550781 C-271.22653635 402.23271168 -274.58470256 399.46227936 -277.68798828 395.79785156 C-278.01798828 394.80785156 -278.34798828 393.81785156 -278.68798828 392.79785156 C-277.12564453 393.10529297 -277.12564453 393.10529297 -275.53173828 393.41894531 C-268.08200865 394.83389455 -260.83518925 395.96290208 -253.25048828 396.23535156 C-245.75869433 396.60440545 -240.09426941 398.26569757 -233.62158203 401.98535156 C-228.28892713 404.99084004 -224.62604616 405.40197146 -218.68798828 403.79785156 C-195.73207016 396.06097486 -175.47861316 379.22723615 -156.921875 364.12011719 C-126.73316008 339.60120294 -126.73316008 339.60120294 -112.34423828 339.70019531 C-111.51021484 339.70341797 -110.67619141 339.70664062 -109.81689453 339.70996094 C-108.94935547 339.71833984 -108.08181641 339.72671875 -107.18798828 339.73535156 C-106.32044922 339.73986328 -105.45291016 339.744375 -104.55908203 339.74902344 C-102.94774003 339.75774013 -101.33640691 339.76850937 -99.72509766 339.78198242 C-98.04610381 339.79506183 -96.36703307 339.79785156 -94.68798828 339.79785156 C-98.00343127 338.6927039 -100.89208939 338.47677525 -104.37548828 338.23535156 C-105.55498047 338.1515625 -106.73447266 338.06777344 -107.94970703 337.98144531 C-108.85333984 337.92085937 -109.75697266 337.86027344 -110.68798828 337.79785156 C-110.30126953 337.14042969 -109.91455078 336.48300781 -109.51611328 335.80566406 C-106.11260906 329.5883717 -104.13090751 324.09174041 -102.81298828 317.17285156 C-99.93561106 302.55145534 -92.82803918 289.66008084 -85.76611328 276.66503906 C-83.65138093 272.74864926 -81.59437235 268.82048409 -79.68798828 264.79785156 C-79.31843018 264.04221924 -78.94887207 263.28658691 -78.56811523 262.50805664 C-75.52658565 255.75023226 -75.1299604 249.70803543 -75.12548828 242.36035156 C-75.08970785 233.99284179 -74.26366111 226.77619327 -71.68798828 218.79785156 C-71.39859375 217.85321045 -71.10919922 216.90856934 -70.81103516 215.93530273 C-65.3477561 198.57951835 -51.83169608 184.96270584 -36.17236328 176.38378906 C-28.58771664 172.93158443 -21.95917251 171.33663469 -13.62548828 171.11035156 C-12.75988281 171.07619141 -11.89427734 171.04203125 -11.00244141 171.00683594 C-8.89804441 170.92545042 -6.79304258 170.85995388 -4.68798828 170.79785156 C-9.63798828 170.13785156 -14.58798828 169.47785156 -19.68798828 168.79785156 C-17.32845734 166.43832062 -15.90903211 166.30643743 -12.68798828 165.79785156 C-20.36728634 166.9016067 -27.15104216 168.80817098 -34.25048828 171.92285156 C-35.16725342 172.32246094 -36.08401855 172.72207031 -37.02856445 173.13378906 C-43.76144051 176.16967788 -49.45548924 179.51385155 -54.68798828 184.79785156 C-55.36345703 185.44882812 -56.03892578 186.09980469 -56.73486328 186.77050781 C-70.96774901 201.52747267 -77.91586924 220.34463577 -77.75976562 240.65283203 C-77.72670394 252.97439921 -78.51888305 260.20991601 -86.32177734 269.93017578 C-97.89341807 285.74916283 -103.98913858 304.5019617 -105.68798828 323.79785156 C-106.34798828 323.79785156 -107.00798828 323.79785156 -107.68798828 323.79785156 C-107.86974609 322.67507813 -108.05150391 321.55230469 -108.23876953 320.39550781 C-109.52779975 312.63705427 -110.81948128 305.15264914 -113.68798828 297.79785156 C-114.40123931 295.90386288 -115.10933574 294.00792718 -115.81298828 292.11035156 C-116.31185547 290.80517578 -116.31185547 290.80517578 -116.82080078 289.47363281 C-122.7966168 271.03474104 -118.18964657 249.64586865 -109.76513672 232.80908203 C-104.55444627 223.07978286 -97.7768032 214.21826707 -90.68798828 205.79785156 C-89.82457135 204.76020403 -88.96129856 203.72243655 -88.09814453 202.68457031 C-85.32411585 199.3635016 -82.51543333 196.07351374 -79.68798828 192.79785156 C-79.24632324 192.28480469 -78.8046582 191.77175781 -78.34960938 191.24316406 C-72.21831599 184.16524481 -66.21365721 177.87289596 -57.68798828 173.79785156 C-58.34798828 173.46785156 -59.00798828 173.13785156 -59.68798828 172.79785156 C-59.16849609 172.15460938 -58.64900391 171.51136719 -58.11376953 170.84863281 C-52.74986615 163.89836244 -49.43919593 157.1176093 -46.68798828 148.79785156 C-46.95611328 149.49394531 -47.22423828 150.19003906 -47.50048828 150.90722656 C-48.77983497 154.02142573 -50.20025568 157.02775439 -51.68798828 160.04785156 C-52.46142578 161.63339844 -52.46142578 161.63339844 -53.25048828 163.25097656 C-54.68798828 165.79785156 -54.68798828 165.79785156 -56.68798828 166.79785156 C-56.65318359 166.03601563 -56.61837891 165.27417969 -56.58251953 164.48925781 C-56.37895073 156.72456195 -56.82956674 149.97554459 -61.31298828 143.42285156 C-63.18718494 139.84483976 -63.11778758 136.52664563 -63.37158203 132.53613281 C-63.80128447 128.81734995 -64.99336781 126.11341335 -66.68798828 122.79785156 C-65.45435547 122.41306641 -65.45435547 122.41306641 -64.19580078 122.02050781 C-55.94163123 119.18968985 -46.8185536 115.0589822 -42.68798828 106.79785156 C-43.13787109 107.30574219 -43.58775391 107.81363281 -44.05126953 108.33691406 C-53.75337812 118.71953127 -66.82733745 124.64847848 -81.05639648 125.35888672 C-89.78384189 125.62078005 -89.78384189 125.62078005 -93.64501953 122.10644531 C-95.80000444 118.61644107 -96.21096451 117.23263607 -95.87548828 113.23535156 C-95.56711446 109.13339784 -95.93338213 106.54417281 -97.68798828 102.79785156 C-97.02798828 102.46785156 -96.36798828 102.13785156 -95.68798828 101.79785156 C-97.00798828 101.13785156 -98.32798828 100.47785156 -99.68798828 99.79785156 C-99.68798828 95.83785156 -99.68798828 91.87785156 -99.68798828 87.79785156 C-100.96673828 87.83910156 -102.24548828 87.88035156 -103.56298828 87.92285156 C-105.74267578 87.99316406 -105.74267578 87.99316406 -107.68798828 87.79785156 C-109.68798828 85.79785156 -109.68798828 85.79785156 -109.97924805 83.01293945 C-109.65653542 79.45065736 -108.77978885 77.45473895 -107.02783203 74.35644531 C-106.48191406 73.36064453 -105.93599609 72.36484375 -105.37353516 71.33886719 C-104.20555927 69.26522061 -103.03628221 67.1923064 -101.86572266 65.12011719 C-101.32109375 64.12560547 -100.77646484 63.13109375 -100.21533203 62.10644531 C-99.45337524 60.75764282 -99.45337524 60.75764282 -98.67602539 59.3815918 C-97.15417625 55.40192057 -98.30428645 52.83441919 -99.73486328 48.96972656 C-100.84454812 45.27684097 -100.991859 41.86536822 -100.93798828 38.04785156 C-100.92977051 37.34192871 -100.92155273 36.63600586 -100.91308594 35.90869141 C-100.65726443 23.88508062 -97.77478778 14.93548243 -89.37548828 6.04785156 C-65.52470842 -15.99605104 -26.39246361 -18.79613694 0 0 Z " fill="#030303" transform="translate(385.68798828125,567.2021484375)"/>
<path d="M0 0 C2.20045977 1.10421622 4.0655249 2.39427822 6.0546875 3.83984375 C8.2527656 5.15074575 9.71618471 5.35507699 12.25 5.5 C16 6 16 6 18.5 8.0625 C20.55183721 12.0806812 20.4409754 14.51675008 20 19 C19.34 19.66 18.68 20.32 18 21 C18.74121094 20.67644531 19.48242188 20.35289062 20.24609375 20.01953125 C39.25586839 14.85662679 60.20201174 19.6464148 77 29 C88.49417458 35.95130759 97.29157629 45.79767073 101.56396484 58.70361328 C102.15903361 61.83755327 101.99803965 64.78154368 101.88671875 67.96875 C101.85454299 69.35933941 101.82399886 70.74996734 101.79492188 72.140625 C101.74597226 74.30901968 101.6884813 76.47532402 101.60229492 78.64257812 C101.17198122 89.94773801 102.78633856 98.6288508 110.1784668 107.66210938 C112 110 112 110 112.375 112.6875 C112 115 112 115 110 117 C107.68234271 117.71927295 105.34904126 118.3909893 103 119 C101.95994298 122.38018531 101.91995518 125.4780279 102 129 C100.02 129.99 100.02 129.99 98 131 C98.66 131.33 99.32 131.66 100 132 C99.42655063 134.86724686 99.1385485 135.8614515 97 138 C96.98601593 140.50549495 96.98601593 140.50549495 97.25 143.3125 C97.28815852 147.46632746 97.23869207 148.65219156 94.8125 152.1875 C88.38106006 156.34901996 79.04843029 154.42384008 72 152.9375 C65.10793466 151.03528997 59.1382137 147.57299006 53 144 C52.34 143.67 51.68 143.34 51 143 C52.62445619 143.98006859 54.24958261 144.95902636 55.875 145.9375 C56.77992188 146.48277344 57.68484375 147.02804687 58.6171875 147.58984375 C60.05201636 148.43898017 61.50875448 149.25437724 63 150 C60.99793158 156.71906294 58.94828995 163.42216799 56.8671875 170.1171875 C55.64958916 174.16487927 54.86441095 177.74808624 54.68359375 181.984375 C54.64169922 182.91894531 54.59980469 183.85351562 54.55664062 184.81640625 C54.51732422 185.78449219 54.47800781 186.75257813 54.4375 187.75 C54.37272461 189.22533203 54.37272461 189.22533203 54.30664062 190.73046875 C54.20077948 193.15351275 54.09869829 195.5766554 54 198 C47.52942249 191.84621118 44.51667118 182.38890392 42 174 C44.72453006 186.94800477 49.88099573 196.64692002 59.87939453 205.19677734 C66.38657729 210.91262129 70.84257071 217.93957069 75.66699219 225.06542969 C84.07934034 237.27411957 95.03683658 247.89693257 106.2734375 257.5078125 C112.593724 262.97014155 117.55165413 268.92008319 122 276 C122.65742187 277.01126953 122.65742187 277.01126953 123.328125 278.04296875 C127.66818299 285.94370813 127.23201198 296.39398101 125.33984375 305.00390625 C123.10291703 311.19176846 119.19115494 316.00879813 115 321 C110.33116872 326.644739 107.41483172 332.06801248 105 339 C102.55520577 336.55520577 102.52520747 335.23593157 101.875 331.875 C98.54558226 318.06529686 90.2888861 305.93309588 82.9765625 293.93359375 C79.45094463 288.13144055 76.13501228 282.22010945 72.83984375 276.28515625 C71.70387497 274.25681284 70.53773367 272.24464174 69.32421875 270.26171875 C66.85508167 266.04452002 66.00786829 261.62819116 65.61328125 256.81640625 C65.10218445 252.0321891 63.88212751 247.72269628 62.3125 243.1875 C61.90994995 242.01247925 61.90994995 242.01247925 61.49926758 240.8137207 C55.572455 223.95149715 46.23827969 206.69034761 29.875 198.125 C21.39410242 194.26768518 14.24574045 193.74973936 5 194 C5.69222656 194.0515625 6.38445312 194.103125 7.09765625 194.15625 C21.2178595 195.79337501 33.12275716 202.96054707 42 214 C51.65466466 227.04294956 57.38391183 240.94107931 60.8203125 256.78125 C64.71938885 274.7210769 73.58316742 289.28953257 83.68579102 304.43481445 C91.98962433 316.89836619 99.40016316 329.37822827 104.67041016 343.43383789 C106.24424249 347.56274401 108.05365865 350.70290373 111 354 C110.18015625 354.04898437 109.3603125 354.09796875 108.515625 354.1484375 C107.43796875 354.22320313 106.3603125 354.29796875 105.25 354.375 C104.18265625 354.44460938 103.1153125 354.51421875 102.015625 354.5859375 C99.19793568 354.9728223 97.4169634 355.55686166 95 357 C95.99 356.67 96.98 356.34 98 356 C116.88615567 353.76044364 130.60775306 362.81242124 145 374 C145.58378418 374.44778809 146.16756836 374.89557617 146.76904297 375.35693359 C152.99363716 380.1345007 159.08079033 385.04722806 165.0625 390.125 C188.88600483 410.1620039 188.88600483 410.1620039 217.5625 420.9375 C223.26309025 420.38404464 228.69894763 417.17900612 233.7421875 414.62890625 C238.10765876 412.44617062 241.30106941 411.8600407 246.125 411.625 C254.54660279 411.08763832 262.72248192 409.59337212 271 408 C269.30591122 412.65485861 267.32822476 415.50774006 263 418 C261.03334601 418.6437314 259.05239621 419.24466979 257.0625 419.8125 C250.80502137 421.69052285 247.6589261 424.69198045 244 430 C244.99902344 430.49371094 245.99804688 430.98742187 247.02734375 431.49609375 C248.3307814 432.14312395 249.63416398 432.79026511 250.9375 433.4375 C251.59685547 433.76298828 252.25621094 434.08847656 252.93554688 434.42382812 C257.88671875 436.88671875 257.88671875 436.88671875 259 438 C261.45792029 438.33343551 261.45792029 438.33343551 264 438 C266.42533321 434.36200018 266.71333837 431.0346254 267.3125 426.8125 C268.35893425 420.17201724 269.60937964 415.29126043 274 410 C274.66 410 275.32 410 276 410 C276 419.9 276 429.8 276 440 C279.59722736 436.40277264 280.47332871 435.42625055 281.9375 431 C283.52021804 426.78149562 284.8819751 424.21739802 289 422 C289.99 422.33 290.98 422.66 292 423 C291.31571766 425.09950264 290.6203426 427.19423551 289.91015625 429.28515625 C289.28868429 431.13890308 288.69339355 433.00158107 288.12109375 434.87109375 C286.12752414 441.01862848 284.44248424 444.41290811 279 448 C284.08303686 448.11320856 284.08303686 448.11320856 289 447 C290.39439664 446.93334624 291.79169875 446.91461801 293.1875 446.9375 C294.445625 446.958125 295.70375 446.97875 297 447 C297 447.99 297 448.98 297 450 C281.67692476 457.7690141 260.24702781 463.64405244 243.31774902 458.17184448 C242.54257935 457.90630768 241.76740967 457.64077087 240.96875 457.3671875 C240.13396118 457.09286896 239.29917236 456.81855042 238.43908691 456.53591919 C235.78841849 455.66135182 233.14436962 454.7684074 230.5 453.875 C228.75820453 453.29829379 227.01601904 452.72276415 225.2734375 452.1484375 C216.54867106 449.26081013 207.86714512 446.26322444 199.21038818 443.17834473 C194.32548087 441.44580218 189.41595217 439.80543359 184.484375 438.2109375 C159.69126282 430.18278908 134.90081569 421.61576651 112 409 C110.92766113 408.41138184 109.85532227 407.82276367 108.75048828 407.21630859 C105.62490546 405.49449975 102.50949214 403.75519535 99.39944458 402.00549316 C98.15168551 401.30392062 96.90259657 400.60470703 95.65206909 399.90808105 C77.33677189 389.67354379 77.33677189 389.67354379 72.75 380.5 C68.81134975 373.32666641 63.79594559 367.32221534 58.63232422 361.01806641 C53.60259316 354.79973603 48.81238931 348.38697064 44 342 C43.2587085 341.01700928 43.2587085 341.01700928 42.50244141 340.01416016 C34.72314944 329.66008739 27.56981064 318.99963927 20.9375 307.875 C14.76307758 297.58735913 8.6523808 288.37494975 0 280 C0.38671875 280.42410156 0.7734375 280.84820313 1.171875 281.28515625 C10 291.22772277 10 291.22772277 10 297 C4.52898009 296.65806126 1.10038245 293.27704522 -3 290 C-4.33027327 288.99593287 -5.66274562 287.99475047 -7 287 C-5.59182363 290.52044094 -4.43283376 291.50873491 -1 293 C-0.08347656 293.27972656 0.83304688 293.55945313 1.77734375 293.84765625 C13.48884925 298.34985428 16.65705664 307.91757748 21.8203125 318.62109375 C25.95290012 327.14125843 31.25335781 334.51318995 37 342 C37.83748779 343.10698242 37.83748779 343.10698242 38.69189453 344.23632812 C45.20517164 352.83828941 51.93321606 361.20860137 59.00366211 369.3581543 C64.188043 375.33917899 68.46320293 380.92640586 72 388 C76.06498991 394.22451579 81.19354581 396.30602689 88 399 C88.42032854 411.59207308 88.38793295 423.43918068 85.43383789 435.73071289 C83.4762297 443.88283502 83.77160823 450.73082612 85 459 C67.54205543 466.13609413 67.54205543 466.13609413 58.20703125 463.4921875 C54.76823639 462.72530581 51.31862729 462.77453982 47.8125 462.75 C46.73645508 462.7190625 46.73645508 462.7190625 45.63867188 462.6875 C41.64136533 462.65887113 38.46725018 463.06558783 34.71875 464.484375 C29.10936248 466.53562782 23.60518167 466.44975892 17.6875 466.5 C-5.40231085 466.6981958 -22.41576091 475.14957679 -39 491 C-36.63630218 489.1172633 -34.27801305 487.23372306 -31.96484375 485.2890625 C-15.7482139 471.97830274 2.58997337 468.4981141 23 469 C19.26702249 472.12135972 15.34830207 474.74516932 11.1875 477.25 C10.2912793 477.79527344 10.2912793 477.79527344 9.37695312 478.3515625 C7.91985204 479.23747996 6.4601898 480.11918273 5 481 C5.75337646 480.63032104 5.75337646 480.63032104 6.52197266 480.25317383 C39.32472493 464.2331381 39.32472493 464.2331381 57 468 C67.230683 469.60481302 76.22109105 465.4268733 85.60302734 461.89404297 C129.08390625 445.67618001 193.16804702 442.33654237 237.01953125 460.421875 C244.94825427 464.62004551 251.77556518 471.09971239 254.57421875 479.78125 C257.01692616 492.5102207 254.08613895 502.75200569 247.05859375 513.2421875 C228.70800137 537.82571354 197.25053495 548.40656219 168.19604492 553.26000977 C157.85884292 555.05548916 147.74469265 557.74816496 137.61279297 560.4465332 C136.28092886 560.79379936 134.94906056 561.14104945 133.6171875 561.48828125 C132.43753418 561.80321533 131.25788086 562.11814941 130.04248047 562.44262695 C127 563 127 563 123 562 C132.405 558.04 132.405 558.04 142 554 C140.51113281 554.56847656 139.02226563 555.13695312 137.48828125 555.72265625 C119.03478843 562.72552019 119.03478843 562.72552019 110.32373047 565.4765625 C100.50278501 568.57853211 91.10679012 572.42458024 81.6875 576.5625 C80.36937729 577.13908501 79.05118132 577.71550255 77.73291016 578.29174805 C71.11859417 581.18274401 71.11859417 581.18274401 64.52001953 584.109375 C51.82490464 589.73971959 38.67214421 591.26272455 25 593 C23.01530445 593.26406772 21.0306089 593.52813549 19.0459137 593.79220581 C-12.90409386 598.00521067 -44.78926875 599.5336047 -77 599 C-77.96341309 598.99129883 -78.92682617 598.98259766 -79.91943359 598.97363281 C-96.8446925 598.78872699 -117.75580918 596.95651252 -130.91015625 585.30859375 C-136.72259808 579.16636798 -137.70854535 571.90256069 -137.56640625 563.66796875 C-135.72926491 551.77089485 -127.82728029 541.71054712 -120 533 C-119.2999585 532.20891846 -118.59991699 531.41783691 -117.87866211 530.6027832 C-107.41619164 518.96924606 -96.14414404 508.1083179 -85.01904297 497.11499023 C-82.23473443 494.36112833 -79.45688616 491.60087315 -76.6796875 488.83984375 C-75.84194794 488.01556381 -75.00420837 487.19128387 -74.14108276 486.34202576 C-68.32323926 480.54861046 -63.12552615 474.40783159 -58 468 C-57.06486551 466.89847308 -56.12344527 465.8022039 -55.171875 464.71484375 C-26.32716385 431.63647339 -2.72878665 393.13247915 -5 348 C-6.87046649 328.28606258 -14.60832277 309.46240635 -22.5078125 291.4765625 C-32.48312405 268.2356534 -38.88633173 240.81702178 -29.53515625 216.25390625 C-25.52165553 207.74691872 -20.02922102 200.70789028 -14.20214844 193.40405273 C-0.65774607 176.29668129 7.93753798 158.15888511 6 136 C5.13790512 130.81426899 3.82905552 127.3828012 -0.43359375 124.16015625 C-2.33023761 123.00007311 -4.24647614 121.87150155 -6.1796875 120.7734375 C-16.95837751 113.99570168 -23.25630213 101.59262461 -26.1875 89.5625 C-28.02843997 79.41372837 -29.02275194 67.77600996 -23 59 C-21.25 56.5 -21.25 56.5 -20 55 C-24.40213049 60.56058589 -24.40213049 60.56058589 -28.34375 61.64453125 C-33.37814772 61.97860394 -36.50624815 61.13752452 -40.4375 57.9375 C-44.81610505 53.54120362 -46.75194579 49.77820713 -47.3125 43.5 C-46.97432491 39.71243901 -46.17694981 36.6044088 -45 33 C-44.34 33 -43.68 33 -43 33 C-42.67 33.99 -42.34 34.98 -42 36 C-41.98582031 35.01 -41.97164062 34.02 -41.95703125 33 C-41.69636596 24.23942795 -40.91437248 17.78187715 -34.40625 11.44921875 C-30.32419393 7.89742977 -27.97489463 6.9503343 -22.6875 6.75 C-18.48815858 6.42020879 -17.3108885 6.25378653 -13.9375 3.5 C-12.9784375 2.2625 -12.9784375 2.2625 -12 1 C-8.26115572 -0.86942214 -4.07042933 -0.55669107 0 0 Z " fill="#030303" transform="translate(657,552)"/>
<path d="M0 0 C0.84433594 0.19335938 1.68867187 0.38671875 2.55859375 0.5859375 C16.45555664 4.10011202 28.82541775 12.31334361 40 21 C40.80824219 21.61101563 41.61648438 22.22203125 42.44921875 22.8515625 C52.9549088 31.41454865 61.16023754 43.89407972 67 56 C67.43699219 56.83144531 67.87398437 57.66289063 68.32421875 58.51953125 C78.77438293 79.45124148 79.98991272 109.7151998 72.69775391 132.03515625 C67.65238113 146.24270001 60.68729623 158.44020864 51 170 C50.48050781 170.66644531 49.96101562 171.33289063 49.42578125 172.01953125 C38.31246768 185.76420874 22.30882224 194.74903628 5.8125 200.375 C5.11286133 200.61387939 4.41322266 200.85275879 3.69238281 201.09887695 C-16.3291093 207.49862044 -40.04627536 207.57197431 -60 201 C-61.11761719 200.649375 -62.23523438 200.29875 -63.38671875 199.9375 C-77.47275758 195.04391835 -88.99229385 186.98791333 -99.46850586 176.52563477 C-100.53983133 175.4584081 -101.62526827 174.4052456 -102.72094727 173.36303711 C-122.08862811 154.69548878 -130.67883849 129.10577665 -131.44873047 102.79516602 C-131.84783421 74.22503959 -121.98225924 50.48615797 -103 29 C-102.41089844 28.31550781 -101.82179688 27.63101563 -101.21484375 26.92578125 C-76.4620773 0.10575079 -34.49995622 -9.52643952 0 0 Z " fill="#040404" transform="translate(542,586)"/>
<path d="M0 0 C4.74984316 1.75977796 7.29028743 3.63929812 9.65234375 8.16796875 C11.21400453 12.14296321 11.78892503 16.0050042 12.0625 20.25 C12.13585571 21.36544189 12.13585571 21.36544189 12.21069336 22.50341797 C12.4031971 28.65421222 10.74809678 32.53388495 7.3828125 37.70703125 C5.41499824 40.97004529 5.34507612 43.28876467 6 47 C7.64272347 51.27108102 9.15093277 53.58966178 13 56 C16.47798648 57.40406911 20.05658612 58.51290664 23.625 59.66210938 C29.70308606 61.69708695 35.30274921 64.03606376 38.75 69.75 C39.13671875 70.36359375 39.5234375 70.9771875 39.921875 71.609375 C42.61648014 77.584369 43.32754334 83.88161393 43.82421875 90.33984375 C43.96662644 91.9135454 44.11055361 93.48711016 44.25585938 95.06054688 C44.47620172 97.49950873 44.68751871 99.93774652 44.87280273 102.37963867 C45.66867703 112.65148839 46.57255987 119.35298919 54 127 C54.86035953 128.2196444 55.68887458 129.46267589 56.4765625 130.73046875 C56.8375 131.30603516 57.1984375 131.88160156 57.5703125 132.47460938 C58.09238281 133.32249023 58.09238281 133.32249023 58.625 134.1875 C63.71672482 143.17355201 63.71672482 143.17355201 71.875 148.8125 C72.90367187 149.14894531 72.90367187 149.14894531 73.953125 149.4921875 C76.24168987 150.10441884 76.24168987 150.10441884 79.625 150.4375 C86.17814242 151.5296904 90.49061777 155.90463721 94.6328125 160.84765625 C96.99575367 164.56760077 96.84962304 166.68108286 96 171 C93.8125 173.8125 93.8125 173.8125 91 176 C90.236875 176.598125 89.47375 177.19625 88.6875 177.8125 C84.95044728 179.46375585 82.06512527 179.20670128 78 179 C77.814375 179.680625 77.62875 180.36125 77.4375 181.0625 C74.48496311 187.09594494 70.19682623 190.84043636 63.9375 193.25 C52.02970663 196.90567768 40.7645514 198.51362941 28.3125 198.375 C27.2684198 198.37101196 27.2684198 198.37101196 26.20324707 198.36694336 C16.23271733 198.32241423 6.65022761 197.51987118 -3.15625 195.6796875 C-11.18441033 194.26007378 -18.08226004 194.71595988 -26 196.5 C-37.71538191 199.045773 -52.51496632 200.08917682 -64 196 C-64.99 195.34 -65.98 194.68 -67 194 C-65.89881836 193.97812622 -65.89881836 193.97812622 -64.77539062 193.95581055 C-50.91840797 193.6488658 -37.50953634 193.32950405 -24 190 C-23.3404834 189.8462793 -22.6809668 189.69255859 -22.00146484 189.53417969 C-13.30600926 187.65714505 -13.30600926 187.65714505 -5.3125 183.9375 C-2.15223269 182.08904176 -0.11284138 181.49394352 3.40625 180.75390625 C10.36979102 179.07700191 16.43729375 176.2089184 22.8125 173 C26.87176888 170.99338828 30.93305344 168.99100925 35 167 C35.97332275 166.51853516 35.97332275 166.51853516 36.96630859 166.02734375 C45.29019411 162.15373202 54.26564878 161.59894027 63.3125 161.5 C64.27478516 161.45875 65.23707031 161.4175 66.22851562 161.375 C73.0905717 161.29901876 73.0905717 161.29901876 75.77880859 163.37109375 C77.16796875 165.03125 77.16796875 165.03125 79 168 C77.70507824 163.97211178 76.456153 162.17728036 72.875 159.9375 C72.15054688 159.47214844 71.42609375 159.00679687 70.6796875 158.52734375 C68.53810833 157.30670606 66.41600373 156.23508897 64.1953125 155.17578125 C59.76552129 152.98577794 55.91839543 150.24404381 52 147.25 C51.30156982 146.71922852 50.60313965 146.18845703 49.88354492 145.64160156 C44.8657918 141.77647257 40.09752213 137.85863948 36 133 C35.52433594 132.46117187 35.04867187 131.92234375 34.55859375 131.3671875 C30.07986707 125.40446481 29.20400083 117.908046 27.796875 110.75390625 C27.4033161 107.22169548 27.4033161 107.22169548 26 106 C22.73055431 121.54932803 19.83808357 136.04080734 27.6875 150.55859375 C29 153 29 153 29 155 C28.04480469 155.3403125 27.08960938 155.680625 26.10546875 156.03125 C17.31451616 159.28496271 10.30587225 163.0155641 3 169 C6.59898693 167.26715444 9.89415327 165.46894763 13.125 163.125 C26.25685249 154.26760957 41.60412588 151.08128761 57.1875 153.75 C61.90977344 154.79267798 65.78338662 156.65743701 70 159 C70 159.33 70 159.66 70 160 C69.44763672 160.00410889 68.89527344 160.00821777 68.32617188 160.01245117 C46.17117047 160.29925473 30.79853815 166.63283273 11.28979492 176.86425781 C4.77880244 180.09372119 -2.37326489 180.03682463 -9.29296875 178.05859375 C-12.5823187 176.80494664 -15.79267143 175.45027031 -19 174 C-19.90363281 173.59265625 -20.80726563 173.1853125 -21.73828125 172.765625 C-23.51668651 171.95414527 -25.29400889 171.14028867 -27.0703125 170.32421875 C-44.2773489 162.5466383 -60.17030139 159.58779468 -79 159 C-75.95520703 155.48677734 -73.52443594 154.06713531 -69 153 C-66.3076187 152.81067019 -63.74938013 152.71453676 -61.0625 152.75 C-59.95249634 152.75906372 -59.95249634 152.75906372 -58.82006836 152.76831055 C-44.67193653 153.01731767 -31.53557655 155.28451256 -19 162 C-18.34 162.33 -17.68 162.66 -17 163 C-21.60274881 159.60238731 -25.89933106 157.82437859 -31.375 156.25 C-32.47908203 155.91935547 -32.47908203 155.91935547 -33.60546875 155.58203125 C-35.40098788 155.04570736 -37.20014099 154.52157434 -39 154 C-38.11922725 151.65127267 -37.21248152 149.38116247 -35.98974609 147.18774414 C-33.1692539 142.10896525 -32.42116103 138.20912732 -32.625 132.4375 C-32.63861572 131.66462646 -32.65223145 130.89175293 -32.66625977 130.09545898 C-32.88985297 121.79190464 -33.36381089 112.90856733 -36 105 C-38.00383787 108.00575681 -38.36927227 109.89184613 -38.83422852 113.39428711 C-40.71327571 127.00199663 -48.21623778 135.75684245 -59 144 C-63.93052909 147.41675965 -68.9976721 150.61624436 -74.08544922 153.79199219 C-76.75732476 155.47784276 -79.37674653 157.2397589 -82 159 C-83.11375 159.70125 -84.2275 160.4025 -85.375 161.125 C-86.24125 161.74375 -87.1075 162.3625 -88 163 C-88 163.66 -88 164.32 -88 165 C-87.38125 164.360625 -86.7625 163.72125 -86.125 163.0625 C-81.99283892 159.05187307 -77.51857495 159.69954563 -72.08129883 159.67871094 C-55.53308217 159.93306093 -39.41029956 166.88823126 -24.3125 173.0625 C-17.26657559 175.93812591 -10.25133433 178.68412883 -3 181 C-7.16543887 185.39959519 -12.26821237 186.3710296 -18 188 C-19.83884766 188.54914063 -19.83884766 188.54914063 -21.71484375 189.109375 C-32.20002592 191.92063767 -42.81845615 192.56416553 -53.61917114 192.96841431 C-55.27694325 193.03065824 -56.93443859 193.10082723 -58.59152222 193.17929077 C-76.23256984 193.96933429 -76.23256984 193.96933429 -83 188 C-84.875 185.796875 -84.875 185.796875 -86 183.75 C-87.92651911 180.76969118 -87.92651911 180.76969118 -91.0859375 179.51171875 C-92.61684853 179.4620817 -94.14819195 179.42439505 -95.6796875 179.3984375 C-100.0981975 178.63970346 -103.07955461 175.22590014 -106 172 C-107.58543507 168.82912985 -107.34065437 166.52009516 -107 163 C-104.89885021 158.41108886 -102.37270529 154.62653346 -98 152 C-94.54740575 150.83977101 -91.00432889 150.00081047 -87.46289062 149.15820312 C-77.20781466 146.43746869 -72.66519565 139.59932244 -67.3125 130.875 C-66.20903555 129.09869137 -65.1011044 127.32514811 -63.98828125 125.5546875 C-63.50915283 124.77593262 -63.03002441 123.99717773 -62.53637695 123.19482422 C-61 121 -61 121 -58.86279297 119.02246094 C-56.62155461 116.58911644 -56.4245666 115.34493362 -56.20703125 112.0859375 C-56.13419922 111.16039062 -56.06136719 110.23484375 -55.98632812 109.28125 C-55.92896484 108.3221875 -55.87160156 107.363125 -55.8125 106.375 C-55.6763189 104.46591912 -55.53714396 102.5570487 -55.39453125 100.6484375 C-55.31489136 99.38265869 -55.31489136 99.38265869 -55.23364258 98.09130859 C-55 96 -55 96 -54 94 C-53.83963053 92.57429385 -53.72680696 91.14304401 -53.640625 89.7109375 C-53.57617188 88.85113281 -53.51171875 87.99132812 -53.4453125 87.10546875 C-53.31684784 85.3095328 -53.20187625 83.51257183 -53.1015625 81.71484375 C-52.49518595 74.15759528 -50.02785969 69.1119669 -44.75 63.6875 C-41.75467586 61.84946019 -38.95552706 60.87560748 -35.61328125 59.84765625 C-32.55903818 58.85696754 -29.60094178 57.70549032 -26.625 56.5 C-25.62726563 56.0978125 -24.62953125 55.695625 -23.6015625 55.28125 C-20.36413721 53.68684235 -18.60850596 52.21701192 -17 49 C-16.24952125 43.42501503 -16.52755794 39.34610674 -19.5625 34.5625 C-22.4355761 29.44483319 -22.3443377 24.95789229 -22.0625 19.25 C-22.01234741 18.02518921 -22.01234741 18.02518921 -21.96118164 16.77563477 C-21.47399751 10.17466147 -19.35866229 6.18607724 -14.4375 1.625 C-9.53283948 -0.69356679 -5.33073785 -0.8607707 0 0 Z " fill="#060606" transform="translate(518,270)"/>
<path d="M0 0 C0 0.33 0 0.66 0 1 C-0.7528125 1.01417969 -1.505625 1.02835938 -2.28125 1.04296875 C-18.28302884 1.76149523 -34.07365093 6.82166078 -45.3046875 18.78515625 C-55.97338718 32.72329616 -58.62537096 46.72266648 -57 64 C-54.12722558 76.07058438 -46.01621176 85.65102687 -35.83984375 92.44140625 C-28.17778414 96.96837268 -20.24112497 98.79322151 -11.5625 100.4375 C3.03253264 103.30071063 15.04642154 108.66598886 24 121 C31.51316021 132.74930373 32.92168536 144.95482651 30.3125 158.59375 C26.57295178 170.68495592 18.39688712 181.41728871 7.40234375 187.83984375 C-9.41280921 195.96033225 -28.10110512 197.61407622 -46 192 C-56.65534306 188.19202494 -66.28616304 183.28533909 -75 176 C-75.78632813 175.36320313 -76.57265625 174.72640625 -77.3828125 174.0703125 C-96.20620308 158.18209469 -108.10024362 133.89300908 -110.32275391 109.45043945 C-110.47119107 105.8986212 -110.51923219 102.36733032 -110.5 98.8125 C-110.49355469 97.55091064 -110.48710937 96.28932129 -110.48046875 94.98950195 C-109.9407405 67.17041672 -96.84434827 44.09062477 -77.45385742 24.77416992 C-56.9129739 5.26570777 -28.01770555 -4.37887901 0 0 Z " fill="#FBFBFB" transform="translate(532,586)"/>
<path d="M0 0 C1.0712915 0.21970459 2.14258301 0.43940918 3.24633789 0.66577148 C15.8749151 3.28638844 28.45436953 6.14559098 41.01831055 9.05883789 C43.75666304 9.68486993 46.50118297 10.25516927 49.25708008 10.79858398 C60.31321196 13.02355911 70.36469206 16.51964932 80.75 20.875 C82.24358154 21.49029119 83.73772262 22.10422589 85.23242188 22.71679688 C87.42130325 23.61458772 89.60987684 24.51304443 91.79685974 25.41545105 C104.7528468 30.90885128 104.7528468 30.90885128 118.25 34.75 C119.33925781 34.98332031 120.42851562 35.21664063 121.55078125 35.45703125 C122.33839844 35.61558594 123.12601563 35.77414062 123.9375 35.9375 C123.9375 36.2675 123.9375 36.5975 123.9375 36.9375 C114.0137105 37.9997612 104.10703898 38.15812334 94.13885498 38.32565308 C75.79747329 38.64588559 57.42097616 38.9876917 39.21435547 41.4387207 C28.487809 42.87600425 17.91401256 43.27901033 7.09521484 43.25317383 C4.28054747 43.24996356 1.46688597 43.27376347 -1.34765625 43.29882812 C-3.16145703 43.3010973 -4.97526059 43.30180639 -6.7890625 43.30078125 C-8.03292221 43.31459587 -8.03292221 43.31459587 -9.3019104 43.32868958 C-16.58606554 43.27092626 -21.6170051 40.87734661 -27.9375 37.3125 C-29.07832031 36.67441406 -29.07832031 36.67441406 -30.2421875 36.0234375 C-32.0625 34.9375 -32.0625 34.9375 -33.0625 33.9375 C-33.10313832 32.27132885 -33.105221 30.60361905 -33.0625 28.9375 C-34.7125 28.6075 -36.3625 28.2775 -38.0625 27.9375 C-38.44468767 26.28135343 -38.77645102 24.61292976 -39.0625 22.9375 C-38.7325 22.6075 -38.4025 22.2775 -38.0625 21.9375 C-38.8875 21.40125 -39.7125 20.865 -40.5625 20.3125 C-43.0625 17.9375 -43.0625 17.9375 -43.8125 15.1875 C-42.66246794 10.20402776 -39.89414534 7.23384194 -36.0625 3.9375 C-24.44990999 -3.11300108 -12.84123402 -2.70043749 0 0 Z " fill="#050404" transform="translate(199.0625,1106.0625)"/>
<path d="M0 0 C2.67346426 2.27801433 4.679011 4.16562993 5.16796875 7.73828125 C5.0703125 9.69140625 4.97265625 11.64453125 4.875 13.59765625 C2.4 14.58765625 2.4 14.58765625 -0.125 15.59765625 C0.865 17.08265625 0.865 17.08265625 1.875 18.59765625 C1.875 19.91765625 1.875 21.23765625 1.875 22.59765625 C-0.105 23.25765625 -2.085 23.91765625 -4.125 24.59765625 C-4.24875 25.38140625 -4.3725 26.16515625 -4.5 26.97265625 C-5.125 29.59765625 -5.125 29.59765625 -7.125 31.59765625 C-10.75 31.72265625 -10.75 31.72265625 -14.125 31.59765625 C-14.3712059 32.23221741 -14.6174118 32.86677856 -14.87107849 33.52056885 C-16.125 35.59765625 -16.125 35.59765625 -17.97279358 36.41644287 C-23.40105398 37.43254722 -28.60100151 37.89222806 -34.12109375 37.86328125 C-35.36971947 37.86615143 -35.36971947 37.86615143 -36.64356995 37.86907959 C-38.39739282 37.87043184 -40.15122604 37.86680299 -41.9050293 37.85839844 C-44.52481946 37.84780856 -47.14390441 37.85826264 -49.76367188 37.87109375 C-60.37070007 37.87965991 -70.70627339 37.18345714 -81.2237854 35.83612061 C-98.77956653 33.63414507 -116.44819206 33.26035651 -134.11572266 32.93920898 C-142.82270016 32.77513889 -151.45505068 32.50165773 -160.125 31.59765625 C-160.125 31.26765625 -160.125 30.93765625 -160.125 30.59765625 C-159.04863281 30.37851563 -157.97226562 30.159375 -156.86328125 29.93359375 C-148.74867568 28.20409832 -141.49365937 26.1267625 -134.01953125 22.44140625 C-120.5459919 15.90250491 -106.3241511 10.24660235 -91.65625 7.14746094 C-87.74678237 6.29829802 -83.85619327 5.36986279 -79.96220398 4.45274353 C-79.30138321 4.29713455 -78.64056244 4.14152557 -77.9597168 3.98120117 C-77.29273773 3.82412689 -76.62575867 3.66705261 -75.93856812 3.50521851 C-71.53996274 2.47196114 -67.13805826 1.45295528 -62.7355957 0.4362793 C-60.30788025 -0.12759944 -57.88194311 -0.69918451 -55.45776367 -1.27807617 C-54.30638916 -1.55111572 -53.15501465 -1.82415527 -51.96875 -2.10546875 C-50.94587891 -2.35071289 -49.92300781 -2.59595703 -48.86914062 -2.84863281 C-45.50362842 -3.52772371 -42.53966194 -3.64057598 -39.125 -3.40234375 C-39.125 -4.06234375 -39.125 -4.72234375 -39.125 -5.40234375 C-24.99739693 -8.83464645 -12.25954149 -8.4509707 0 0 Z " fill="#050505" transform="translate(870.125,1111.40234375)"/>
<path d="M0 0 C0.33 0 0.66 0 1 0 C4.83260393 13.41411375 9.13432426 33.76523911 2.625 46.9375 C1.79227711 48.31806689 0.92250728 49.67773956 0 51 C-0.66 51.99 -1.32 52.98 -2 54 C-0.88625 54.0825 0.2275 54.165 1.375 54.25 C9.45376934 55.28133226 16.11772502 58.42731844 22 64 C18.51915331 64 16.81639732 62.81886076 13.8828125 61.08203125 C0.68169295 53.49549574 -19.96893722 51.2950852 -34.83203125 54.63671875 C-38.18088244 55.86723414 -38.18088244 55.86723414 -41 58 C-39.31197266 58.05607422 -39.31197266 58.05607422 -37.58984375 58.11328125 C-14.3506413 59.03102071 4.05654731 66.39587333 25 76 C31.53651796 78.92057186 39.17897391 79.23914207 45.98950195 77.03051758 C48.95296992 75.70473588 51.81912628 74.27025741 54.6875 72.75 C56.62842118 71.76466893 58.56982112 70.78028028 60.51171875 69.796875 C61.43629883 69.32096924 62.36087891 68.84506348 63.31347656 68.35473633 C77.19303189 61.35567666 89.58869383 59.4631377 105 59 C103.74914812 58.34310906 102.49447941 57.69348332 101.23828125 57.046875 C100.19087769 56.50305176 100.19087769 56.50305176 99.12231445 55.94824219 C95.82147811 54.47344081 92.56114951 54.15316772 89 54 C88.17757812 53.9484375 87.35515625 53.896875 86.5078125 53.84375 C71.8480246 53.33384433 55.93834648 58.20121066 44.6484375 67.703125 C40.85627859 70.68652964 38.06493895 71.2396414 33.25 71.125 C32.26515625 71.10695313 31.2803125 71.08890625 30.265625 71.0703125 C29.51796875 71.04710937 28.7703125 71.02390625 28 71 C28 70.67 28 70.34 28 70 C29.07314453 69.94005859 29.07314453 69.94005859 30.16796875 69.87890625 C37.54731877 69.10564965 42.36635528 66.78597801 48.1875 62.40087891 C53.22632324 58.65675331 59.51902302 55 66 55 C65.4946875 54.11441406 64.989375 53.22882813 64.46875 52.31640625 C55.28013305 35.24114632 59.16050166 19.29633283 63 1 C63.33 1 63.66 1 64 1 C64.10022461 1.59425781 64.20044922 2.18851562 64.30371094 2.80078125 C64.77274413 5.53627644 65.2612249 8.26796607 65.75 11 C65.90726563 11.93457031 66.06453125 12.86914062 66.2265625 13.83203125 C69.30396616 30.75775138 80.52982688 40.41512459 94 50 C97.34106685 52.27670654 100.7412076 54.32907004 104.30859375 56.23046875 C108.87762599 58.66878645 112.70386864 60.8798358 116 65 C116.8125 67.8125 116.8125 67.8125 117 70 C116.38125 69.21625 115.7625 68.4325 115.125 67.625 C112.64634193 64.16919343 112.64634193 64.16919343 108.9597168 62.7253418 C106.20184798 62.69664473 103.44554214 62.67837345 100.6875 62.6875 C99.75615234 62.67138672 98.82480469 62.65527344 97.86523438 62.63867188 C85.25941456 62.63004366 74.89751558 66.02280373 63.875 71.9375 C55.26113827 76.49022199 46.79009402 80.40273268 37.375 83 C34.68076477 83.79829192 32.5065303 84.67298361 30 85.875 C15.14651736 92.64495467 -1.51602669 94.21931119 -17.625 94.75 C-18.87667969 94.80542969 -20.12835938 94.86085938 -21.41796875 94.91796875 C-23.21041016 94.98177734 -23.21041016 94.98177734 -25.0390625 95.046875 C-26.11365723 95.08651367 -27.18825195 95.12615234 -28.29541016 95.16699219 C-31 95 -31 95 -34 93 C-31.17120527 91.58560263 -28.77533607 91.8722875 -25.61328125 91.859375 C-24.27944112 91.84496529 -22.94561847 91.82886271 -21.61181641 91.8112793 C-20.91002258 91.80220551 -20.20822876 91.79313171 -19.48516846 91.78378296 C-1.11108543 91.49808318 15.95562527 89.26351187 33 82 C32.46858398 81.79955078 31.93716797 81.59910156 31.38964844 81.39257812 C28.84233897 80.43038243 26.2960635 79.46548789 23.75 78.5 C22.80431152 78.14196289 21.85862305 77.78392578 20.88427734 77.41503906 C15.26596839 75.27748673 9.68650802 73.06612602 4.12817383 70.77758789 C-4.7960757 67.11405856 -13.57964654 64.1240797 -23 62 C-23.78375 61.80664062 -24.5675 61.61328125 -25.375 61.4140625 C-29.10908354 60.82505528 -32.78797169 60.81573994 -36.5625 60.8125 C-37.31724609 60.80025391 -38.07199219 60.78800781 -38.84960938 60.77539062 C-44.25586056 60.72744856 -44.25586056 60.72744856 -49 63 C-50.75322937 65.53188648 -50.75322937 65.53188648 -52 68 C-52.33 67.34 -52.66 66.68 -53 66 C-50.17214907 59.67892145 -44.05940782 57.01399521 -38.39257812 53.55053711 C-18.85417666 41.72590704 -18.85417666 41.72590704 -5 24 C-4.37731988 21.37367362 -3.86131591 18.84279209 -3.4375 16.1875 C-2.49465672 10.723111 -1.4500756 5.3541253 0 0 Z " fill="#F1F1F1" transform="translate(481,370)"/>
<path d="M0 0 C0 0.33 0 0.66 0 1 C-0.59167969 1.09796875 -1.18335938 1.1959375 -1.79296875 1.296875 C-7.6659316 2.40823502 -11.66567674 3.77641074 -15.3125 8.8125 C-16.70791913 13.25246997 -16.39653013 16.91475964 -14.8125 21.25 C-12.39247135 24.9217676 -10.2317693 26.52971959 -5.88671875 27.4453125 C-5.11972656 27.58710938 -4.35273437 27.72890625 -3.5625 27.875 C1.22857584 28.82523004 3.56101367 30.56101367 7 34 C10.26003616 38.89005425 9.55600064 44.285158 9 50 C7.09871892 54.33492086 4.52818527 57.12359844 0.24609375 59.296875 C-5.58141799 61.12113955 -11.85855817 61.16857851 -17.59375 59.03515625 C-24.01609262 55.24113535 -27.4970165 49.42375368 -31 43 C-31.38285156 42.40574219 -31.76570313 41.81148438 -32.16015625 41.19921875 C-34.76450473 34.3794597 -34.10018198 24.50278528 -31.9375 17.6171875 C-28.09404521 10.118273 -22.58770026 4.10995319 -14.625 1.0625 C-9.77208927 -0.32646572 -5.00686619 -0.28222419 0 0 Z " fill="#F8F8F8" transform="translate(524,340)"/>
<path d="M0 0 C13.15713079 0.26082418 22.85616526 5.50926701 32.30859375 14.4375 C45.02371672 27.92098323 54.14161758 47.54422247 55.81542969 66.04199219 C56.89975024 74.21373285 60.99867081 81.22343501 65.0625 88.25 C65.63371582 89.25232666 66.20493164 90.25465332 66.79345703 91.28735352 C70.51219608 97.75546051 74.43865011 104.0557382 78.5 110.3125 C85.99490327 121.93166646 91.41008404 133.72285116 94.125 147.375 C93.135 147.375 92.145 147.375 91.125 147.375 C90.74730469 146.42882812 90.36960937 145.48265625 89.98046875 144.5078125 C84.6539363 131.55819903 77.56440333 120.01253974 69.80859375 108.38671875 C58.81443762 91.88832379 52.01910575 77.28853875 47.48828125 57.94140625 C42.91292367 38.67589425 33.03064304 20.54561251 16.22265625 9.4609375 C8.1945992 4.73168208 1.36423818 3.05374463 -7.875 2.375 C-5.18953875 -0.31046125 -3.75250471 0.04499406 0 0 Z " fill="#EEEEEE" transform="translate(667.875,744.625)"/>
<path d="M0 0 C2.85451818 0.99035695 5.73133371 1.90896223 8.60742188 2.83447266 C12.34288926 4.08093352 15.96973315 5.47497824 19.59570312 7.01025391 C23.78629089 8.77112919 27.98687068 10.49823213 32.20898438 12.18212891 C52.08447547 20.13048828 71.72411958 28.53636889 90.54492188 38.77197266 C91.80067017 39.45163086 91.80067017 39.45163086 93.08178711 40.14501953 C93.84305908 40.56976562 94.60433105 40.99451172 95.38867188 41.43212891 C96.05060547 41.80088135 96.71253906 42.16963379 97.39453125 42.54956055 C99.04492188 43.70947266 99.04492188 43.70947266 101.04492188 46.70947266 C96.56759107 45.3473931 92.66868833 43.53567232 88.54492188 41.33447266 C70.35538497 31.97367201 50.64558526 25.03236388 31.29101562 18.52587891 C27.54894617 17.25539482 23.86081844 15.88405248 20.17773438 14.45166016 C11.90949157 11.24287982 3.56807166 8.24289319 -4.78149414 5.25317383 C-7.49018983 4.28179451 -10.19625024 3.30330796 -12.90234375 2.32470703 C-44.6584398 -9.09126839 -75.10343327 -16.39500736 -108.95507812 -17.29052734 C-83.02203075 -32.84880382 -25.89769197 -9.08241396 0 0 Z " fill="#EDEDED" transform="translate(278.955078125,1027.29052734375)"/>
<path d="M0 0 C0 4.07507614 -1.59550712 5.15195895 -4.25 8.1875 C-7.9981614 12.62626752 -10.69388508 16.6859091 -13 22 C-12.37351562 21.69964844 -11.74703125 21.39929688 -11.1015625 21.08984375 C-10.28429687 20.70957031 -9.46703125 20.32929687 -8.625 19.9375 C-7.81289063 19.55464844 -7.00078125 19.17179688 -6.1640625 18.77734375 C-5.44992187 18.52082031 -4.73578125 18.26429688 -4 18 C-3.34 18.33 -2.68 18.66 -2 19 C-5.16324731 21.33477778 -7.30818406 22.90687093 -11.25 23.4375 C-12.1575 23.623125 -13.065 23.80875 -14 24 C-15.0081005 26.08862058 -15.0081005 26.08862058 -16 29 C-24.0427642 47.70161231 -34.56928044 63.95174682 -47 80 C-47.556875 80.73863281 -48.11375 81.47726562 -48.6875 82.23828125 C-62.39761561 100.26576499 -62.39761561 100.26576499 -70.875 107.125 C-75.32381936 110.84305661 -77.28434829 115.09306195 -79.68359375 120.296875 C-83.77692231 128.70216687 -92.55566369 132.22145045 -100.9375 135.1875 C-101.85402344 135.49042969 -102.77054687 135.79335938 -103.71484375 136.10546875 C-106.14976301 136.88262919 -106.14976301 136.88262919 -108 139 C-108 137.02 -108 135.04 -108 133 C-106.84242188 132.50371094 -105.68484375 132.00742187 -104.4921875 131.49609375 C-102.95270586 130.81083668 -101.41366648 130.12458545 -99.875 129.4375 C-99.11445313 129.11458984 -98.35390625 128.79167969 -97.5703125 128.45898438 C-90.9751994 125.47412715 -86.78279495 121.67016726 -83.6015625 115.12109375 C-83.11816406 113.79271484 -83.11816406 113.79271484 -82.625 112.4375 C-80.55949526 107.60055852 -78.63116152 105.65464473 -74.30859375 102.84375 C-69.53298152 99.02972466 -66.10000457 93.78664619 -62.453125 88.92260742 C-60.85348413 86.8061471 -59.22384334 84.7150365 -57.58984375 82.625 C-45.92531004 67.65495939 -35.0359181 52.44607552 -25.875 35.8125 C-18.60691765 22.61692938 -10.70358219 10.70358219 0 0 Z " fill="#EEEEEF" transform="translate(398,821)"/>
<path d="M0 0 C-3 2 -3 2 -8 3 C-2.72 3.99 2.56 4.98 8 6 C8 6.33 8 6.66 8 7 C7.4016333 7.00410889 6.8032666 7.00821777 6.18676758 7.01245117 C-11.01015197 7.21813378 -11.01015197 7.21813378 -27 13 C-27.92554688 13.48339844 -28.85109375 13.96679688 -29.8046875 14.46484375 C-45.12648544 23.34106947 -56.56675139 37.72064854 -61.5 54.6875 C-62.0228368 56.78610883 -62.52665652 58.88967697 -63 61 C-63.26562744 61.91773193 -63.26562744 61.91773193 -63.53662109 62.85400391 C-64.08205022 65.37999022 -64.09253319 67.67754376 -64.0703125 70.26171875 C-64.13941485 84.04007985 -65.3825191 94.85730287 -72 107 C-72.35690918 107.65726074 -72.71381836 108.31452148 -73.08154297 108.99169922 C-74.55133105 111.66492919 -76.04411171 114.32276498 -77.57641602 116.96069336 C-80.44592828 121.90675372 -83.00749506 126.94937588 -85.4375 132.125 C-85.76741943 132.82367187 -86.09733887 133.52234375 -86.43725586 134.2421875 C-89.40030724 140.63773057 -91.30830707 146.94220866 -92.625 153.875 C-92.7590625 154.56335938 -92.893125 155.25171875 -93.03125 155.9609375 C-93.35772223 157.63993755 -93.67936553 159.31987536 -94 161 C-94.33 161 -94.66 161 -95 161 C-97.40737821 143.88809543 -90.91882245 129.18754266 -83.125 114.25 C-82.69904541 113.43152588 -82.27309082 112.61305176 -81.83422852 111.76977539 C-79.40230664 107.23009592 -76.76888162 103.44741808 -73.4375 99.5 C-67.91722973 91.67686249 -69.27227004 81.92300932 -69.171875 72.72265625 C-68.88121025 53.51994333 -61.70765364 37.34831315 -49 23 C-48.47148437 22.39027344 -47.94296875 21.78054688 -47.3984375 21.15234375 C-36.34073566 9.2299401 -16.42912165 -0.3820726 0 0 Z " fill="#E5E5E6" transform="translate(376,732)"/>
<path d="M0 0 C0.33 0 0.66 0 1 0 C1.10022461 0.59425781 1.20044922 1.18851562 1.30371094 1.80078125 C1.77274413 4.53627644 2.2612249 7.26796607 2.75 10 C2.90726563 10.93457031 3.06453125 11.86914062 3.2265625 12.83203125 C6.29155164 29.68947154 17.49366924 39.52929578 31 49 C34.27907505 51.10498168 37.59359207 53.10840553 41 55 C39.515 55.495 39.515 55.495 38 56 C37.443125 55.71125 36.88625 55.4225 36.3125 55.125 C26.23746472 50.22363149 12.16328561 52.88807654 2 56 C-5.41467152 58.68544193 -12.28198196 61.59479024 -18.3515625 66.703125 C-22.14372141 69.68652964 -24.93506105 70.2396414 -29.75 70.125 C-30.73484375 70.10695313 -31.7196875 70.08890625 -32.734375 70.0703125 C-33.48203125 70.04710937 -34.2296875 70.02390625 -35 70 C-35 69.67 -35 69.34 -35 69 C-33.92685547 68.94005859 -33.92685547 68.94005859 -32.83203125 68.87890625 C-25.45268123 68.10564965 -20.63364472 65.78597801 -14.8125 61.40087891 C-9.77367676 57.65675331 -3.48097698 54 3 54 C2.4946875 53.11441406 1.989375 52.22882813 1.46875 51.31640625 C-7.71986695 34.24114632 -3.83949834 18.29633283 0 0 Z " fill="#F8F8F8" transform="translate(544,371)"/>
<path d="M0 0 C0.83789062 -0.00386719 1.67578125 -0.00773438 2.5390625 -0.01171875 C17.88703973 0.01203973 17.88703973 0.01203973 21 3.125 C20.22213135 3.12910889 19.4442627 3.13321777 18.64282227 3.13745117 C0.54631766 3.30347415 -16.35717659 4.73281719 -34 9.125 C-35.39822998 9.46772949 -35.39822998 9.46772949 -36.82470703 9.81738281 C-54.02326779 14.09960942 -71.0863946 19.44297908 -87.50683594 26.12451172 C-90.94328032 27.50353141 -94.41405006 28.78236167 -97.88696289 30.06616211 C-135.37456712 43.71427128 -135.37456712 43.71427128 -171.5078125 60.46875 C-172.66023437 61.0153125 -173.81265625 61.561875 -175 62.125 C-175.66 61.795 -176.32 61.465 -177 61.125 C-170.52970548 57.14097209 -163.99233949 53.44276565 -157.1875 50.0625 C-156.25446045 49.5984375 -155.3214209 49.134375 -154.36010742 48.65625 C-107.57662442 25.63659346 -53.20404859 -0.24555715 0 0 Z " fill="#E8E8E8" transform="translate(841,1006.875)"/>
<path d="M0 0 C3.49627572 1.03387486 6.71418225 2.30064 9.94921875 3.9609375 C20.99685379 9.62000543 32.1797845 13.92858529 43.9375 17.8125 C58.16617623 22.51594056 71.80932221 28.02649004 85.48828125 34.12890625 C92.87748124 37.42404667 100.36414327 40.32866993 108 43 C107.34 43.99 106.68 44.98 106 46 C102.7421875 46.29296875 102.7421875 46.29296875 98.875 46.1875 C96.95300781 46.14689453 96.95300781 46.14689453 94.9921875 46.10546875 C94.00476563 46.07066406 93.01734375 46.03585937 92 46 C92 45.67 92 45.34 92 45 C94.64 44.67 97.28 44.34 100 44 C99.30559814 43.85087158 98.61119629 43.70174316 97.89575195 43.5480957 C89.30958962 41.56830242 81.3095731 38.53517422 73.1875 35.1875 C71.92413121 34.67308314 70.66045974 34.159409 69.39648438 33.64648438 C68.13279189 33.13286319 66.86912003 32.61919129 65.60546875 32.10546875 C64.97907501 31.85086884 64.35268127 31.59626892 63.70730591 31.33395386 C60.51625697 30.03431827 57.3323088 28.72070984 54.15771484 27.38134766 C46.31755077 24.1069273 38.59643547 21.67806211 30.25 20 C27.89313313 19.50175616 25.53636507 19.00304472 23.1796875 18.50390625 C21.99084961 18.25656738 20.80201172 18.00922852 19.57714844 17.75439453 C14.95470679 16.77955528 10.34817982 15.73966808 5.74047852 14.69775391 C-8.12754038 11.56500013 -22.04558217 8.71969687 -36 6 C-35.34 5.01 -34.68 4.02 -34 3 C-28.43402492 3.91423675 -22.86980727 4.83836468 -17.30688477 5.77099609 C-15.42125024 6.08577657 -13.53519149 6.3980282 -11.64868164 6.70751953 C-1.34406983 8.3998528 8.76190602 10.27003929 18.81616211 13.10839844 C22.84941662 14.23787052 26.90248219 15.13736467 31 16 C29.85144531 15.50371094 28.70289063 15.00742188 27.51953125 14.49609375 C18.09792185 10.38824765 8.95014909 6.06015496 0 1 C0 0.67 0 0.34 0 0 Z " fill="#E6E6E6" transform="translate(219,1098)"/>
<path d="M0 0 C4.65168344 1.66758463 7.59078764 3.64488535 10 8 C10.82440161 13.03053225 10.56768467 16.8436053 8.3125 21.4375 C4.66616794 25.47803012 2.0055627 27.15438768 -3.4375 27.4375 C-7.94494978 27.28000175 -10.53618069 25.96898798 -14 23 C-17.54049643 19.06894521 -17.61307166 15.90967815 -17.49609375 10.76953125 C-16.71089847 6.38603948 -14.37480898 3.78028304 -11 1 C-7.54155176 -0.72922412 -3.78834735 -0.35136443 0 0 Z " fill="#070706" transform="translate(519,723)"/>
<path d="M0 0 C0 0.66 0 1.32 0 2 C-4.95 2.495 -4.95 2.495 -10 3 C-10 3.66 -10 4.32 -10 5 C-11.09570312 5.20753906 -12.19140625 5.41507813 -13.3203125 5.62890625 C-27.87402535 8.43806754 -42.29294354 11.78340401 -56.70800781 15.22314453 C-59.39252493 15.85664598 -62.0793674 16.46757837 -64.7734375 17.05859375 C-75.67374857 19.54598725 -85.72618434 23.67931231 -96 28 C-123.23212866 39.34487378 -123.23212866 39.34487378 -131 39 C-131.66 38.34 -132.32 37.68 -133 37 C-132.19304688 36.71769531 -131.38609375 36.43539063 -130.5546875 36.14453125 C-122.52718673 33.23861006 -114.71479279 30.01461175 -106.91723633 26.53564453 C-92.74880508 20.22105332 -78.44579915 14.81870866 -63.71362305 9.95849609 C-62.30253767 9.49196463 -60.89148517 9.02533372 -59.48046875 8.55859375 C-58.48064217 8.22994324 -58.48064217 8.22994324 -57.46061707 7.89465332 C-53.0414599 6.41884339 -48.8418107 4.70240327 -44.69262695 2.58618164 C-43 2 -43 2 -40 3 C-45.28 5.31 -50.56 7.62 -56 10 C-52.51539041 10 -49.71559364 9.23698821 -46.33984375 8.35546875 C-44.98276593 8.00539044 -43.62558412 7.65571506 -42.26831055 7.30639648 C-41.56008148 7.12309784 -40.85185242 6.93979919 -40.12216187 6.75094604 C-20.06031264 1.5767954 -20.06031264 1.5767954 -10.1875 -0.0625 C-9.47907959 -0.18278564 -8.77065918 -0.30307129 -8.04077148 -0.42700195 C-4.89425512 -0.90769217 -3.07231811 -1.02410604 0 0 Z " fill="#E7E7E7" transform="translate(841,1103)"/>
<path d="M0 0 C0.58007812 0.37382812 1.16015625 0.74765625 1.7578125 1.1328125 C1.19191406 1.33777344 0.62601562 1.54273438 0.04296875 1.75390625 C-0.69050781 2.02332031 -1.42398437 2.29273438 -2.1796875 2.5703125 C-2.91058594 2.83714844 -3.64148438 3.10398437 -4.39453125 3.37890625 C-6.22524428 3.98668198 -6.22524428 3.98668198 -7.2421875 5.1328125 C-5.55416016 5.18888672 -5.55416016 5.18888672 -3.83203125 5.24609375 C19.4071712 6.16383321 37.81435981 13.52868583 58.7578125 23.1328125 C65.29433046 26.05338436 72.93678641 26.37195457 79.74731445 24.16333008 C82.71078242 22.83754838 85.57693878 21.40306991 88.4453125 19.8828125 C90.38623368 18.89748143 92.32763362 17.91309278 94.26953125 16.9296875 C95.19411133 16.45378174 96.11869141 15.97787598 97.07128906 15.48754883 C110.95084439 8.48848916 123.34650633 6.5959502 138.7578125 6.1328125 C137.7678125 5.1428125 137.7678125 5.1428125 136.7578125 4.1328125 C140.32204206 4.1328125 141.41113748 4.97550866 144.3203125 6.9453125 C145.10535156 7.46738281 145.89039063 7.98945313 146.69921875 8.52734375 C148.7578125 10.1328125 148.7578125 10.1328125 150.7578125 13.1328125 C150.3828125 15.3203125 150.3828125 15.3203125 149.7578125 17.1328125 C149.1184375 16.1634375 148.4790625 15.1940625 147.8203125 14.1953125 C146.0612866 11.37244981 146.0612866 11.37244981 144.7578125 10.1328125 C141.35003482 9.84782349 137.92604137 9.90075596 134.5078125 9.8828125 C133.57195312 9.8621875 132.63609375 9.8415625 131.671875 9.8203125 C119.02972229 9.75141793 108.68603512 13.1391388 97.6328125 19.0703125 C89.01895077 23.62303449 80.54790652 27.53554518 71.1328125 30.1328125 C68.43857727 30.93110442 66.2643428 31.80579611 63.7578125 33.0078125 C48.90432986 39.77776717 32.24178581 41.35212369 16.1328125 41.8828125 C14.25529297 41.96595703 14.25529297 41.96595703 12.33984375 42.05078125 C11.14488281 42.09332031 9.94992187 42.13585937 8.71875 42.1796875 C7.64415527 42.21932617 6.56956055 42.25896484 5.46240234 42.29980469 C2.7578125 42.1328125 2.7578125 42.1328125 -0.2421875 40.1328125 C2.58660723 38.71841513 4.98247643 39.0051 8.14453125 38.9921875 C9.47837138 38.97777779 10.81219403 38.96167521 12.14599609 38.9440918 C12.84778992 38.93501801 13.54958374 38.92594421 14.27264404 38.91659546 C32.64672707 38.63089568 49.71343777 36.39632437 66.7578125 29.1328125 C66.22639648 28.93236328 65.69498047 28.73191406 65.14746094 28.52539062 C62.60015147 27.56319493 60.053876 26.59830039 57.5078125 25.6328125 C56.56212402 25.27477539 55.61643555 24.91673828 54.64208984 24.54785156 C49.02378089 22.41029923 43.44432052 20.19893852 37.88598633 17.91040039 C28.9617368 14.24687106 20.17816596 11.2568922 10.7578125 9.1328125 C9.9740625 8.93945312 9.1903125 8.74609375 8.3828125 8.546875 C4.64872896 7.95786778 0.96984081 7.94855244 -2.8046875 7.9453125 C-3.93680664 7.92694336 -3.93680664 7.92694336 -5.09179688 7.90820312 C-10.49804806 7.86026106 -10.49804806 7.86026106 -15.2421875 10.1328125 C-16.99541687 12.66469898 -16.99541687 12.66469898 -18.2421875 15.1328125 C-18.5721875 14.4728125 -18.9021875 13.8128125 -19.2421875 13.1328125 C-17.20078362 8.56967442 -14.4518061 6.67446901 -10.2421875 4.1328125 C-9.57316406 3.66101563 -8.90414063 3.18921875 -8.21484375 2.703125 C-7.52261719 2.22617187 -6.83039063 1.74921875 -6.1171875 1.2578125 C-5.15425781 0.58105469 -5.15425781 0.58105469 -4.171875 -0.109375 C-2.2421875 -0.8671875 -2.2421875 -0.8671875 0 0 Z " fill="#E1E2E2" transform="translate(447.2421875,422.8671875)"/>
<path d="M0 0 C-0.0390625 1.796875 -0.0390625 1.796875 -1 4 C-3.4958677 5.32384223 -5.73592865 6.31471239 -8.375 7.25 C-9.45841675 7.64457397 -9.45841675 7.64457397 -10.5637207 8.04711914 C-17.28283435 10.35100716 -23.41112437 10.9535326 -30.40625 9.5 C-46.65800138 6.36713226 -60.00744502 13.08876326 -73.94873047 20.546875 C-75.60441811 21.42001951 -77.29954041 22.21761897 -79 23 C-79.66 22.67 -80.32 22.34 -81 22 C-75.39 18.37 -69.78 14.74 -64 11 C-84.57526742 10.29857043 -103.60477355 14.98736038 -119.30859375 29.0703125 C-120.92360448 30.67557467 -122.48882562 32.2972683 -124 34 C-124 31 -124 31 -121.4375 27.9375 C-105.2490333 12.47290783 -86.10606654 6.65955727 -64.09179688 6.47265625 C-58.25034228 6.35013345 -53.58220006 5.73376685 -48.12426758 3.66796875 C-44.50026912 2.5284147 -40.9524218 2.64175427 -37.1875 2.75 C-36.08245117 2.75773438 -36.08245117 2.75773438 -34.95507812 2.765625 C-31.48067626 2.81584219 -28.34086391 3.06917615 -25 4 C-17.97160749 4.68487531 -12.57647262 3.90448784 -6.19140625 0.875 C-4 0 -4 0 0 0 Z " fill="#EAEAEA" transform="translate(742,1011)"/>
<path d="M0 0 C4.65487794 0.04447336 7.22068956 1.24632036 10.8125 4.3125 C13.5149425 8.36616375 13.33986817 11.55781551 12.8125 16.3125 C11.42161202 19.8669915 10.24868806 21.02501242 7.0625 23.125 C3.25428057 24.51646479 0.83631749 24.88733107 -3.1875 24.3125 C-6.15548207 22.51573955 -8.61151242 20.46447515 -10.1875 17.3125 C-10.80915748 11.79751005 -11.25154786 7.67666392 -7.75 3.1875 C-6.904375 2.56875 -6.05875 1.95 -5.1875 1.3125 C-3.63719882 -0.23780118 -2.15073999 0.06844901 0 0 Z " fill="#F8F8F8" transform="translate(519.1875,625.6875)"/>
<path d="M0 0 C1.63042097 4.8912629 -0.84350567 8.49507205 -3 13 C-4.74609637 16.23504363 -6.58876142 19.41458322 -8.42358398 22.59985352 C-11.32159666 27.67568734 -13.95237929 32.83516049 -16.4375 38.125 C-16.76717773 38.82310791 -17.09685547 39.52121582 -17.43652344 40.24047852 C-20.39969914 46.63669608 -22.30817578 52.94151738 -23.625 59.875 C-23.7590625 60.56335938 -23.893125 61.25171875 -24.03125 61.9609375 C-24.35772223 63.63993755 -24.67936553 65.31987536 -25 67 C-25.33 67 -25.66 67 -26 67 C-29.17699831 44.41755258 -16.56768092 21.76458931 -4.25390625 3.49609375 C-3 2 -3 2 0 0 Z " fill="#E4E4E5" transform="translate(307,826)"/>
<path d="M0 0 C9.58343709 -0.39771967 18.27460775 0.70275622 27.625 2.75 C29.47351563 3.12898437 29.47351563 3.12898437 31.359375 3.515625 C49.53757402 7.37511524 62.37419684 14.19970352 75 28 C74.67 28.66 74.34 29.32 74 30 C73.62230469 29.57589844 73.24460937 29.15179687 72.85546875 28.71484375 C67.87144961 23.40400368 62.31287372 19.59657746 56 16 C54.89914062 15.35804687 53.79828125 14.71609375 52.6640625 14.0546875 C46.78640381 11.16475195 40.35177667 9.83598123 34.01147461 8.33520508 C31.83125107 7.81695721 29.65697512 7.27781378 27.48242188 6.73632812 C18.9882843 4.66701587 10.77165877 3.32987597 2 3 C2 2.34 2 1.68 2 1 C1.34 0.67 0.68 0.34 0 0 Z " fill="#E8E8E8" transform="translate(348,1015)"/>
<path d="M0 0 C0.33 0 0.66 0 1 0 C1.07476563 1.17433594 1.14953125 2.34867188 1.2265625 3.55859375 C2.49154439 20.08457984 5.70781443 35.91012297 18.625 47.3125 C21.03433822 49.2730923 23.47876787 51.18471287 26 53 C17.89706958 51.76323694 11.69877752 46.46707385 6.5703125 40.2890625 C2.33987397 34.12230385 -1.1227519 26.75557423 -1.1328125 19.21875 C-1.13410156 18.29449219 -1.13539063 17.37023437 -1.13671875 16.41796875 C-1.13091797 14.97357422 -1.13091797 14.97357422 -1.125 13.5 C-1.12886719 12.53707031 -1.13273438 11.57414063 -1.13671875 10.58203125 C-1.13542969 9.65777344 -1.13414062 8.73351562 -1.1328125 7.78125 C-1.13168457 6.93626953 -1.13055664 6.09128906 -1.12939453 5.22070312 C-1 3 -1 3 0 0 Z " fill="#151516" transform="translate(626,626)"/>
<path d="M0 0 C0.495 0.99 0.495 0.99 1 2 C-15.19454769 9.95521641 -32.78381095 12.16224563 -50.625 12.75 C-51.87667969 12.80542969 -53.12835938 12.86085938 -54.41796875 12.91796875 C-56.21041016 12.98177734 -56.21041016 12.98177734 -58.0390625 13.046875 C-59.65095459 13.10633301 -59.65095459 13.10633301 -61.29541016 13.16699219 C-64 13 -64 13 -67 11 C-64.17120527 9.58560263 -61.77533607 9.8722875 -58.61328125 9.859375 C-57.27944112 9.84496529 -55.94561847 9.82886271 -54.61181641 9.8112793 C-53.55912567 9.79766861 -53.55912567 9.79766861 -52.48516846 9.78378296 C-34.11108543 9.49808318 -17.04437473 7.26351187 0 0 Z " fill="#AEAEAE" transform="translate(514,452)"/>
<path d="M0 0 C0 0.99 0 1.98 0 3 C-0.8156543 3.33209473 -1.63130859 3.66418945 -2.47167969 4.00634766 C-5.55966151 5.2662757 -8.64583373 6.53045999 -11.73095703 7.79736328 C-13.05482311 8.34003632 -14.37934648 8.88110927 -15.70458984 9.42041016 C-23.5754978 12.62486624 -31.21407838 15.98695342 -38.71582031 20.00927734 C-39.46959961 20.33621582 -40.22337891 20.6631543 -41 21 C-41.66 20.67 -42.32 20.34 -43 20 C-36.14581355 15.7518372 -29.16739678 11.94208496 -21.9375 8.375 C-21.00873047 7.9109375 -20.07996094 7.446875 -19.12304688 6.96875 C-16.42374591 5.62762363 -13.71600349 4.30694149 -11 3 C-10.13648926 2.58395508 -9.27297852 2.16791016 -8.38330078 1.73925781 C-7.17456299 1.17609863 -7.17456299 1.17609863 -5.94140625 0.6015625 C-5.22799072 0.26721191 -4.5145752 -0.06713867 -3.77954102 -0.41162109 C-2 -1 -2 -1 0 0 Z " fill="#E3E3E4" transform="translate(707,1048)"/>
<path d="M0 0 C0.58007812 0.37382812 1.16015625 0.74765625 1.7578125 1.1328125 C1.19191406 1.33777344 0.62601562 1.54273438 0.04296875 1.75390625 C-0.69050781 2.02332031 -1.42398437 2.29273438 -2.1796875 2.5703125 C-2.91058594 2.83714844 -3.64148438 3.10398437 -4.39453125 3.37890625 C-6.22524428 3.98668198 -6.22524428 3.98668198 -7.2421875 5.1328125 C-5.55416016 5.18888672 -5.55416016 5.18888672 -3.83203125 5.24609375 C19.89590774 6.20186012 19.89590774 6.20186012 27.7578125 10.1328125 C27.7578125 11.1228125 27.7578125 12.1128125 27.7578125 13.1328125 C26.58863281 12.85566406 25.41945313 12.57851563 24.21484375 12.29296875 C22.66667727 11.92703849 21.11849959 11.56115557 19.5703125 11.1953125 C18.80138672 11.01291016 18.03246094 10.83050781 17.24023438 10.64257812 C15.73791332 10.28795298 14.23474719 9.93688673 12.73071289 9.58959961 C11.23195252 9.2425905 9.73628539 8.88218939 8.2421875 8.515625 C4.55980212 7.94821342 0.91570473 7.94850597 -2.8046875 7.9453125 C-3.93680664 7.92694336 -3.93680664 7.92694336 -5.09179688 7.90820312 C-10.49804806 7.86026106 -10.49804806 7.86026106 -15.2421875 10.1328125 C-16.99541687 12.66469898 -16.99541687 12.66469898 -18.2421875 15.1328125 C-18.5721875 14.4728125 -18.9021875 13.8128125 -19.2421875 13.1328125 C-17.20078362 8.56967442 -14.4518061 6.67446901 -10.2421875 4.1328125 C-9.57316406 3.66101563 -8.90414063 3.18921875 -8.21484375 2.703125 C-7.52261719 2.22617187 -6.83039063 1.74921875 -6.1171875 1.2578125 C-5.15425781 0.58105469 -5.15425781 0.58105469 -4.171875 -0.109375 C-2.2421875 -0.8671875 -2.2421875 -0.8671875 0 0 Z " fill="#E0E0E0" transform="translate(447.2421875,422.8671875)"/>
<path d="M0 0 C3.125 0.3125 3.125 0.3125 5.0625 2 C6.4222698 4.95949899 6.21661147 6.27158233 5.125 9.3125 C3.8125 11.1875 3.8125 11.1875 2.125 12.3125 C-0.28971555 12.16158028 -1.64323734 11.45635269 -3.6875 10.1875 C-5.59789701 7.17108366 -4.61911478 4.66101653 -3.875 1.3125 C-2.875 0.3125 -2.875 0.3125 0 0 Z " fill="#0E0E0E" transform="translate(516.875,380.6875)"/>
<path d="M0 0 C2 2 2 2 2.375 4.4375 C2 7 2 7 0.375 8.875 C-2.76664987 10.36314994 -4.69044136 9.82738966 -8 9 C-9.32561852 2.61292897 -9.32561852 2.61292897 -7.9375 0 C-5.02830946 -1.5015177 -3.0821738 -0.85251616 0 0 Z " fill="#EFEFEF" transform="translate(524,350)"/>
<path d="M0 0 C-3 2 -3 2 -8 3 C-2.72 3.99 2.56 4.98 8 6 C8 6.33 8 6.66 8 7 C0.41 7.33 -7.18 7.66 -15 8 C-15.33 6.68 -15.66 5.36 -16 4 C-10.59316713 0.4469384 -6.40508852 -0.14895555 0 0 Z " fill="#D0D1D1" transform="translate(376,732)"/>
<path d="M0 0 C2.30859375 1.5234375 2.30859375 1.5234375 4 3 C2.32199692 4.67800308 0.11295151 4.24461004 -2.1875 4.375 C-6.81348369 4.73499873 -9.90826421 5.74954532 -14 8 C-14.99 7.67 -15.98 7.34 -17 7 C-16.03441599 4.45436943 -15.06131195 3.05364796 -13 1.25 C-8.74270807 -0.52387164 -4.55101918 -0.75480318 0 0 Z " fill="#555556" transform="translate(657,552)"/>
<path d="M0 0 C1.79639296 1.09646058 3.58697154 2.20245148 5.375 3.3125 C6.37273438 3.92738281 7.37046875 4.54226563 8.3984375 5.17578125 C11 7 11 7 13 10 C12.625 12.1875 12.625 12.1875 12 14 C11.360625 13.030625 10.72125 12.06125 10.0625 11.0625 C8.3034741 8.23963731 8.3034741 8.23963731 7 7 C5.65682471 6.85561656 4.30685134 6.77308383 2.95703125 6.71875 C2.13009766 6.68136719 1.30316406 6.64398438 0.45117188 6.60546875 C-0.8549707 6.55326172 -0.8549707 6.55326172 -2.1875 6.5 C-7.53554117 6.28138212 -12.73207412 6.03461719 -18 5 C-18 4.67 -18 4.34 -18 4 C-11.73 3.67 -5.46 3.34 1 3 C0.34 2.34 -0.32 1.68 -1 1 C-0.67 0.67 -0.34 0.34 0 0 Z " fill="#8E8E8F" transform="translate(585,426)"/>
<path d="M0 0 C0.33 0.66 0.66 1.32 1 2 C0.34515625 2.1959375 -0.3096875 2.391875 -0.984375 2.59375 C-12.01305659 6.20766826 -21.2908556 12.31364012 -29 21 C-29 18 -29 18 -26.4375 14.9375 C-21.11198175 9.80922316 -7.55668033 -2.51889344 0 0 Z " fill="#D2D2D2" transform="translate(647,1024)"/>
<path d="M0 0 C0.495 1.485 0.495 1.485 1 3 C-0.59328125 3.65355469 -0.59328125 3.65355469 -2.21875 4.3203125 C-12.3935244 8.52321786 -12.3935244 8.52321786 -21.421875 14.73828125 C-25.160362 17.72722012 -27.98587198 18.23843162 -32.75 18.125 C-33.73484375 18.10695313 -34.7196875 18.08890625 -35.734375 18.0703125 C-36.48203125 18.04710937 -37.2296875 18.02390625 -38 18 C-38 17.67 -38 17.34 -38 17 C-37.28457031 16.96003906 -36.56914062 16.92007812 -35.83203125 16.87890625 C-28.45268123 16.10564965 -23.63364472 13.78597801 -17.8125 9.40087891 C-12.77367676 5.65675331 -6.48097698 2 0 2 C0 1.34 0 0.68 0 0 Z " fill="#B6B6B6" transform="translate(547,423)"/>
<path d="M0 0 C1.11503906 0.00644531 2.23007813 0.01289062 3.37890625 0.01953125 C4.53777344 0.03628906 5.69664062 0.05304687 6.890625 0.0703125 C8.65212891 0.08384766 8.65212891 0.08384766 10.44921875 0.09765625 C13.34656036 0.12121187 16.24348941 0.15410598 19.140625 0.1953125 C19.140625 1.1853125 19.140625 2.1753125 19.140625 3.1953125 C9.570625 2.8653125 0.000625 2.5353125 -9.859375 2.1953125 C-5.83976339 0.18550669 -4.32745128 -0.04415767 0 0 Z " fill="#DADADA" transform="translate(179.859375,1007.8046875)"/>
<path d="M0 0 C5.99932374 1.8331267 11.44920563 4.07321751 17 7 C16.67 7.66 16.34 8.32 16 9 C10.05901461 8.62868841 5.5959899 6.87856709 1 3 C0.67 2.01 0.34 1.02 0 0 Z " fill="#242424" transform="translate(433,454)"/>
<path d="M0 0 C1.05380859 -0.00128906 2.10761719 -0.00257813 3.19335938 -0.00390625 C4.85141602 0.00189453 4.85141602 0.00189453 6.54296875 0.0078125 C8.18362305 0.00201172 8.18362305 0.00201172 9.85742188 -0.00390625 C11.44393555 -0.00197266 11.44393555 -0.00197266 13.0625 0 C14.51233276 0.00169189 14.51233276 0.00169189 15.99145508 0.00341797 C18.66905634 0.1299113 21.12132368 0.53492671 23.73046875 1.1328125 C23.73046875 1.4628125 23.73046875 1.7928125 23.73046875 2.1328125 C19.7982969 2.32536829 15.86576301 2.50404151 11.93237305 2.66992188 C9.93700342 2.756982 7.9421218 2.85500123 5.94726562 2.953125 C4.0668457 3.03046875 4.0668457 3.03046875 2.1484375 3.109375 C0.99110107 3.16174316 -0.16623535 3.21411133 -1.35864258 3.26806641 C-4.26953125 3.1328125 -4.26953125 3.1328125 -7.26953125 1.1328125 C-4.70716052 -0.14837286 -2.86609124 0.00335636 0 0 Z " fill="#99999A" transform="translate(454.26953125,461.8671875)"/>
<path d="M0 0 C-3.25037332 2.16691555 -5.51343755 2.66191286 -9.3125 3.4375 C-13.14376392 4.26335022 -16.05076648 5.02582856 -19.5625 6.8125 C-20.366875 7.204375 -21.17125 7.59625 -22 8 C-24.15234375 7.07421875 -24.15234375 7.07421875 -26 6 C-17.1488985 1.86547186 -9.83181382 -0.35608179 0 0 Z " fill="#D5D5D6" transform="translate(573,431)"/>
<path d="M0 0 C0.474375 0.66 0.94875 1.32 1.4375 2 C5.98730963 7.32660639 11.35225247 11.86687567 17 16 C10.06449728 14.96211667 4.39604853 10.97271776 -0.0625 5.625 C-0.701875 4.75875 -1.34125 3.8925 -2 3 C-1.34 3 -0.68 3 0 3 C0 2.01 0 1.02 0 0 Z " fill="#292929" transform="translate(635,663)"/>
<path d="M0 0 C3.18952887 3.18952887 4.14374478 7.60013391 5.61328125 11.79492188 C7.31958793 16.52925983 9.39183451 20.69257517 12 25 C12.66 25 13.32 25 14 25 C14.33 25.99 14.66 26.98 15 28 C14.01 28 13.02 28 12 28 C5.32293578 20.77563544 0.6665765 9.77645535 0 0 Z " fill="#BFBEBF" transform="translate(698,724)"/>
<path d="M0 0 C5.0715963 0.71468215 9.87619385 1.94837846 14.7421875 3.52734375 C14.7421875 3.85734375 14.7421875 4.18734375 14.7421875 4.52734375 C10.84712239 4.60224885 7.49744008 4.48519608 3.7421875 3.52734375 C2.37542118 3.38805019 1.0047308 3.28369074 -0.3671875 3.2109375 C-1.12128906 3.16904297 -1.87539063 3.12714844 -2.65234375 3.08398438 C-3.81830078 3.02500977 -3.81830078 3.02500977 -5.0078125 2.96484375 C-6.19697266 2.90006836 -6.19697266 2.90006836 -7.41015625 2.83398438 C-9.35919065 2.72831384 -11.30847998 2.62736409 -13.2578125 2.52734375 C-9.87997538 -2.12924599 -5.13612601 -0.47517174 0 0 Z " fill="#C4C4C4" transform="translate(284.2578125,904.47265625)"/>
<path d="M0 0 C0 4.09931268 -1.65557889 5.24877757 -4.3125 8.3125 C-6.85483411 11.24785194 -8.89280909 13.78432983 -10.625 17.26953125 C-12 20 -12 20 -14.6875 21.375 C-15.450625 21.58125 -16.21375 21.7875 -17 22 C-15.45832375 16.75627222 -12.0634672 13.29724477 -8.5 9.3125 C-7.90574219 8.63638672 -7.31148438 7.96027344 -6.69921875 7.26367188 C-4.51417592 4.78515264 -2.33684317 2.33684317 0 0 Z " fill="#C6C6C8" transform="translate(398,821)"/>
<path d="M0 0 C1.6640625 1.5234375 1.6640625 1.5234375 3 3 C0.39740876 3.53010201 -2.206557 4.04937795 -4.8125 4.5625 C-5.55048828 4.71396484 -6.28847656 4.86542969 -7.04882812 5.02148438 C-12.66015625 6.11328125 -12.66015625 6.11328125 -16 5 C-15 3 -15 3 -13.14453125 2.1484375 C-4.65960666 -0.66565809 -4.65960666 -0.66565809 0 0 Z " fill="#DEDEDF" transform="translate(662,1019)"/>
<path d="M0 0 C3.4755219 1.75988237 6.13517606 4.12983744 8.94921875 6.7734375 C9.74875977 7.49660156 9.74875977 7.49660156 10.56445312 8.234375 C13.26675053 10.73612454 15.42290789 12.93231367 16.76171875 16.3984375 C15.81296875 15.5528125 14.86421875 14.7071875 13.88671875 13.8359375 C10.13866376 10.61459492 6.16827064 7.8029258 2.09375 5.01171875 C-0.05824746 3.52298349 -2.15608899 1.98281828 -4.23828125 0.3984375 C-2.23828125 -0.6015625 -2.23828125 -0.6015625 0 0 Z " fill="#D9D9D9" transform="translate(406.23828125,1028.6015625)"/>
<path d="M0 0 C-2 2 -2 2 -4.15478516 2.22705078 C-5.02409668 2.21657715 -5.8934082 2.20610352 -6.7890625 2.1953125 C-7.73007812 2.18886719 -8.67109375 2.18242188 -9.640625 2.17578125 C-10.62546875 2.15902344 -11.6103125 2.14226563 -12.625 2.125 C-13.61757813 2.11597656 -14.61015625 2.10695313 -15.6328125 2.09765625 C-18.08878134 2.07404116 -20.54427168 2.04110799 -23 2 C-23 1.67 -23 1.34 -23 1 C-21.02 0.67 -19.04 0.34 -17 0 C-17 -0.33 -17 -0.66 -17 -1 C-11.0853971 -2.59854133 -5.84715547 -1.25890714 0 0 Z " fill="#4B4B4B" transform="translate(542,586)"/>
<path d="M0 0 C4.32421646 1.58444573 8.26442583 3.717804 12.25 6 C12.88679688 6.35578125 13.52359375 6.7115625 14.1796875 7.078125 C18.87881324 9.75762649 18.87881324 9.75762649 20 12 C14.90117545 10.4719611 10.34334341 8.28963144 5.625 5.875 C4.88894531 5.50246094 4.15289062 5.12992188 3.39453125 4.74609375 C1.59449642 3.8343878 -0.20301402 2.91770068 -2 2 C-1.34 1.34 -0.68 0.68 0 0 Z " fill="#DBDBDB" transform="translate(360,1062)"/>
<path d="M0 0 C2.3125 0.8125 2.3125 0.8125 4 2 C3.43410156 2.20496094 2.86820312 2.40992188 2.28515625 2.62109375 C1.55167969 2.89050781 0.81820313 3.15992188 0.0625 3.4375 C-0.66839844 3.70433594 -1.39929688 3.97117187 -2.15234375 4.24609375 C-3.98305678 4.85386948 -3.98305678 4.85386948 -5 6 C-4.01 6.66 -3.02 7.32 -2 8 C-2.61488281 8.10957031 -3.22976563 8.21914063 -3.86328125 8.33203125 C-4.67152344 8.49058594 -5.47976563 8.64914062 -6.3125 8.8125 C-7.51326172 9.03873047 -7.51326172 9.03873047 -8.73828125 9.26953125 C-11.27062353 10.08740345 -12.28872967 11.00351795 -14 13 C-15 14 -16 15 -17 16 C-16.48313114 12.46806282 -15.5475192 10.46426494 -12.81640625 8.1484375 C-10.25004318 6.356178 -7.66129613 4.64784903 -5 3 C-4.11570312 2.41992188 -3.23140625 1.83984375 -2.3203125 1.2421875 C-1.55460937 0.83226562 -0.78890625 0.42234375 0 0 Z " fill="#A7A7A8" transform="translate(445,422)"/>
<path d="M0 0 C2 2 2 2 2.375 4.625 C1.73962359 10.34338768 -0.51054781 14.51054781 -4.5625 18.5625 C-5.366875 19.036875 -6.17125 19.51125 -7 20 C-7.99 19.67 -8.98 19.34 -10 19 C-9.071875 18.29875 -8.14375 17.5975 -7.1875 16.875 C-1.62113191 12.18822309 -0.59919076 6.95061283 0 0 Z " fill="#C2C3C4" transform="translate(363,633)"/>
<path d="M0 0 C-2.5598501 1.15208295 -5.12258513 2.29679373 -7.6875 3.4375 C-8.7693457 3.92573242 -8.7693457 3.92573242 -9.87304688 4.42382812 C-13.56546832 6.0592842 -16.96466087 7.43489334 -21 8 C-21 8.66 -21 9.32 -21 10 C-22.65 9.67 -24.3 9.34 -26 9 C-21.91534634 6.27689756 -17.5402854 4.64460108 -13 2.8125 C-12.08476563 2.43158203 -11.16953125 2.05066406 -10.2265625 1.65820312 C-9.34742188 1.30306641 -8.46828125 0.94792969 -7.5625 0.58203125 C-6.75941406 0.25436768 -5.95632813 -0.0732959 -5.12890625 -0.41088867 C-3 -1 -3 -1 0 0 Z " fill="#878788" transform="translate(801,1106)"/>
<path d="M0 0 C-3.00013467 3.00013467 -6.68922003 4.39474391 -10.5 6.1875 C-11.28503906 6.56841797 -12.07007813 6.94933594 -12.87890625 7.34179688 C-14.00619141 7.87450195 -14.00619141 7.87450195 -15.15625 8.41796875 C-15.84525391 8.74563232 -16.53425781 9.0732959 -17.24414062 9.41088867 C-17.82357422 9.60529541 -18.40300781 9.79970215 -19 10 C-19.66 9.67 -20.32 9.34 -21 9 C-4.12391931 -1.37463977 -4.12391931 -1.37463977 0 0 Z " fill="#CFCFD0" transform="translate(685,1059)"/>
<path d="M0 0 C0.66 0.33 1.32 0.66 2 1 C1 4 1 4 -0.55053711 5.09082031 C-1.2028833 5.41663086 -1.85522949 5.74244141 -2.52734375 6.078125 C-3.59178711 6.61179687 -3.59178711 6.61179687 -4.67773438 7.15625 C-5.79631836 7.69765625 -5.79631836 7.69765625 -6.9375 8.25 C-7.67935547 8.62640625 -8.42121094 9.0028125 -9.18554688 9.390625 C-11.09079893 10.33029601 -13.04320375 11.1730082 -15 12 C-15.66 11.67 -16.32 11.34 -17 11 C-14.21681883 9.13284189 -11.42220667 7.28356646 -8.625 5.4375 C-7.8309375 4.90447266 -7.036875 4.37144531 -6.21875 3.82226562 C-5.45820312 3.32275391 -4.69765625 2.82324219 -3.9140625 2.30859375 C-2.8614624 1.60947876 -2.8614624 1.60947876 -1.78759766 0.89624023 C-1.19769043 0.60048096 -0.6077832 0.30472168 0 0 Z " fill="#D2D2D3" transform="translate(678,1022)"/>
<path d="M0 0 C2.08304538 -0.05418326 4.16649768 -0.09287551 6.25 -0.125 C7.99023438 -0.15980469 7.99023438 -0.15980469 9.765625 -0.1953125 C12.82786046 -0.0103949 14.44202751 0.39176977 17 2 C17 2.66 17 3.32 17 4 C12.05 3.67 7.1 3.34 2 3 C2 2.34 2 1.68 2 1 C1.34 0.67 0.68 0.34 0 0 Z " fill="#D7D8D8" transform="translate(348,1015)"/>
<path d="M0 0 C0 0.66 0 1.32 0 2 C-1.56116819 2.33951619 -3.12401338 2.67132544 -4.6875 3 C-5.99267578 3.2784375 -5.99267578 3.2784375 -7.32421875 3.5625 C-9.93712964 3.98972047 -12.35813038 4.07616201 -15 4 C-14 2 -14 2 -11.8125 0.9375 C-7.56134647 -0.47955118 -4.3173949 -1.43913163 0 0 Z " fill="#EAEAEB" transform="translate(841,1103)"/>
<path d="M0 0 C-2.91765 1.9451 -4.62537285 2.45276317 -8 3 C-5.36 3.33 -2.72 3.66 0 4 C0 4.33 0 4.66 0 5 C-4.29 5 -8.58 5 -13 5 C-13.33 4.01 -13.66 3.02 -14 2 C-9.15758367 0.66416101 -5.06562383 -0.25328119 0 0 Z " fill="#979898" transform="translate(376,732)"/>
<path d="M0 0 C2.35424675 -0.02726927 4.70816962 -0.04696719 7.0625 -0.0625 C8.37347656 -0.07410156 9.68445313 -0.08570313 11.03515625 -0.09765625 C14.8163519 -0.00452335 18.27920707 0.38551274 22 1 C22 1.33 22 1.66 22 2 C17.05 2.33 12.1 2.66 7 3 C7 2.34 7 1.68 7 1 C4.69 1 2.38 1 0 1 C0 0.67 0 0.34 0 0 Z " fill="#CDCDCD" transform="translate(510,585)"/>
<path d="M0 0 C0 0.66 0 1.32 0 2 C-5.445 4.475 -5.445 4.475 -11 7 C-11.33 6.01 -11.66 5.02 -12 4 C-10.75539217 3.32332002 -9.50403104 2.65905281 -8.25 2 C-7.55390625 1.62875 -6.8578125 1.2575 -6.140625 0.875 C-4 0 -4 0 0 0 Z " fill="#DFDFE0" transform="translate(549,438)"/>
<path d="M0 0 C1.79639296 1.09646058 3.58697154 2.20245148 5.375 3.3125 C6.37273438 3.92738281 7.37046875 4.54226563 8.3984375 5.17578125 C11 7 11 7 13 10 C12.625 12.1875 12.625 12.1875 12 14 C11.525625 13.13375 11.05125 12.2675 10.5625 11.375 C7.70793735 7.01530432 3.38476641 4.64210284 -1 2 C-0.67 1.34 -0.34 0.68 0 0 Z " fill="#B8B8B8" transform="translate(585,426)"/>
<path d="M0 0 C0.99 0.33 1.98 0.66 3 1 C0.14723863 3.93200474 -2.65079784 6.64315404 -6 9 C-6.33 8.34 -6.66 7.68 -7 7 C-4.78071806 4.09197539 -3.07030857 2.04687238 0 0 Z " fill="#636363" transform="translate(420,422)"/>
<path d="M0 0 C3.2826932 1.49076434 5.93077441 3.38620321 8.75 5.625 C9.94882812 6.57246094 9.94882812 6.57246094 11.171875 7.5390625 C11.77515625 8.02117187 12.3784375 8.50328125 13 9 C9.11708254 9 7.53247465 7.62139506 4.3125 5.5 C3.31863281 4.8503125 2.32476562 4.200625 1.30078125 3.53125 C0.54152344 3.0259375 -0.21773438 2.520625 -1 2 C-0.67 1.34 -0.34 0.68 0 0 Z " fill="#CCCCCC" transform="translate(359,1023)"/>
<path d="M0 0 C4.52615993 3.67832017 8.39424999 7.41086363 12 12 C11.01 12.66 10.02 13.32 9 14 C8.68546875 13.46890625 8.3709375 12.9378125 8.046875 12.390625 C5.65859822 8.44852959 3.3366818 5.21310099 0 2 C0 1.34 0 0.68 0 0 Z " fill="#BBBABB" transform="translate(656,831)"/>
<path d="M0 0 C-2.58535679 1.72357119 -4.03811614 2.44735018 -6.9375 3.1875 C-7.60652344 3.36667969 -8.27554688 3.54585937 -8.96484375 3.73046875 C-11.24680888 4.03268678 -12.82026659 3.68756692 -15 3 C-13.4447088 2.29634398 -11.88035173 1.61270622 -10.3125 0.9375 C-9.44238281 0.55464844 -8.57226562 0.17179687 -7.67578125 -0.22265625 C-4.67786136 -1.0935848 -2.96719847 -0.85006226 0 0 Z " fill="#2A2A2A" transform="translate(795,1111)"/>
<path d="M0 0 C3.71888239 0.50712033 6.73454239 1.11608215 10 3 C10 3.66 10 4.32 10 5 C6.28111761 4.49287967 3.26545761 3.88391785 0 2 C0 1.34 0 0.68 0 0 Z " fill="#E9E9E9" transform="translate(475,434)"/>
<path d="M0 0 C3.10819813 0.93968781 5.82843953 2.2832351 8.6875 3.8125 C5.05554504 5.02315165 3.62218371 4.44034815 0 3.375 C-1.49080078 2.94380859 -1.49080078 2.94380859 -3.01171875 2.50390625 C-3.77097656 2.27574219 -4.53023437 2.04757812 -5.3125 1.8125 C-2.3125 -0.1875 -2.3125 -0.1875 0 0 Z " fill="#494949" transform="translate(242.3125,1110.1875)"/>
<path d="M0 0 C-1 3 -1 3 -3.375 4.1875 C-6 5 -6 5 -9 5 C-9 4.34 -9 3.68 -9 3 C-3.375 0 -3.375 0 0 0 Z " fill="#EBEBEC" transform="translate(693,1054)"/>
<path d="M0 0 C0.33 0 0.66 0 1 0 C1.33 3.3 1.66 6.6 2 10 C1.34 10 0.68 10 0 10 C-0.66 10.99 -1.32 11.98 -2 13 C-1.48041715 8.62065881 -0.94324258 4.31196609 0 0 Z " fill="#C5C5C6" transform="translate(544,371)"/>
<path d="M0 0 C3.3 0.99 6.6 1.98 10 3 C9.01 3.66 8.02 4.32 7 5 C4.95703125 4.5390625 4.95703125 4.5390625 2.8125 3.625 C2.09707031 3.32851563 1.38164062 3.03203125 0.64453125 2.7265625 C0.10183594 2.48679687 -0.44085938 2.24703125 -1 2 C-0.67 1.34 -0.34 0.68 0 0 Z " fill="#D5D5D6" transform="translate(499,444)"/>
<path d="M0 0 C1.98 0 3.96 0 6 0 C5.67 0.99 5.34 1.98 5 3 C3.02 3.33 1.04 3.66 -1 4 C-0.67 2.68 -0.34 1.36 0 0 Z " fill="#F1F1F1" transform="translate(788,1113)"/>
<path d="M0 0 C2.97 0.33 5.94 0.66 9 1 C9 1.66 9 2.32 9 3 C6.1875 3.1875 6.1875 3.1875 3 3 C2.01 2.01 1.02 1.02 0 0 Z " fill="#F1F1F1" transform="translate(364,1017)"/>
<path d="M0 0 C-2.31 0.66 -4.62 1.32 -7 2 C-7 2.66 -7 3.32 -7 4 C-8.65 3.67 -10.3 3.34 -12 3 C-7.97869817 0.31913211 -4.73968522 -1.57989507 0 0 Z " fill="#A8A9A9" transform="translate(787,1112)"/>
<path d="M0 0 C2.31 0.33 4.62 0.66 7 1 C6.01 1.33 5.02 1.66 4 2 C4 2.66 4 3.32 4 4 C1.69 3.67 -0.62 3.34 -3 3 C-2.01 2.67 -1.02 2.34 0 2 C0 1.34 0 0.68 0 0 Z " fill="#D3D3D3" transform="translate(373,1018)"/>
<path d="M0 0 C2.26171875 0.14453125 2.26171875 0.14453125 4.6875 0.8125 C5.49574219 1.02519531 6.30398438 1.23789062 7.13671875 1.45703125 C8.05904297 1.72580078 8.05904297 1.72580078 9 2 C9 2.33 9 2.66 9 3 C5.04 3 1.08 3 -3 3 C-2.01 2.01 -1.02 1.02 0 0 Z " fill="#A9AAA9" transform="translate(274,904)"/>
<path d="M0 0 C3.125 0.375 3.125 0.375 6 1 C5.67 1.99 5.34 2.98 5 4 C2.69 3.34 0.38 2.68 -2 2 C-1.34 1.34 -0.68 0.68 0 0 Z " fill="#D6D7D7" transform="translate(485,438)"/>
<path d="M0 0 C0.33 0 0.66 0 1 0 C1.33 2.64 1.66 5.28 2 8 C1.01 8.495 1.01 8.495 0 9 C-0.66 9.99 -1.32 10.98 -2 12 C-1.33333333 8 -0.66666667 4 0 0 Z " fill="#D9D9DA" transform="translate(481,370)"/>
</svg>
