<?xml version="1.0" encoding="UTF-8"?>
<svg version="1.1" xmlns="http://www.w3.org/2000/svg" width="1024" height="1024">
<path d="M0 0 C3.03091014 1.73929988 5.65791932 3.46897211 8.1875 5.875 C15.3363932 12.13612215 25.10313035 16.57604952 34.7109375 16.2421875 C47.87548761 14.84935114 57.38621703 8.75922448 67 0 C67.03738281 0.98097656 67.07476563 1.96195312 67.11328125 2.97265625 C67.97849772 24.34586565 67.97849772 24.34586565 78.875 42 C93.98324323 54.04091092 114.49019524 60.36948398 132.5 66.6875 C134.87927948 67.52320736 137.2577958 68.36081073 139.63415527 69.20478821 C141.09280496 69.72282514 142.55305364 70.23639382 144.01525879 70.74430847 C153.73985364 74.19736004 160.60426351 78.75417709 168 86 C168.8353125 86.78117187 168.8353125 86.78117187 169.6875 87.578125 C178.9545532 97.14736472 183.26495001 111.31369468 186 124 C186.1788826 124.79568893 186.3577652 125.59137787 186.54206848 126.41117859 C186.9834044 128.90618018 187.0845176 131.10086929 187.01831055 133.62817383 C186.99886887 134.51712845 186.97942719 135.40608307 186.95939636 136.32197571 C186.93541275 137.27404404 186.91142914 138.22611237 186.88671875 139.20703125 C186.85454597 141.25974156 186.82400148 143.31247791 186.79492188 145.36523438 C186.74593548 148.57323416 186.68837691 151.77982818 186.60229492 154.98706055 C186.24716717 168.8027104 187.21106891 179.43169299 193 192 C199.35078757 209.45394083 202.76146061 227.95481675 205.10351562 246.33081055 C206.66395307 259.0912973 206.66395307 259.0912973 213 270 C216.75647104 272.76085884 220.88003773 274.83385129 225.03125 276.9296875 C239.03281758 284.01616826 250.45958068 297.32445629 261.36239624 308.45944214 C270.08566235 317.34392104 278.78887465 325.81014395 289 333 C290.22027717 333.87989625 291.44032228 334.76011442 292.66015625 335.640625 C297.90189239 340.02358346 297.90189239 340.02358346 304 342 C304.928125 340.700625 304.928125 340.700625 305.875 339.375 C312.27213775 331.504469 321.95598061 329.58746661 331.5234375 328.55859375 C337.82821543 327.54557887 343.53365766 324.84702913 349.140625 321.859375 C351.83727413 320.61302456 354.0749818 320.74565059 357 321 C359 323 359 323 359.125 325.625 C359.08375 326.40875 359.0425 327.1925 359 328 C356.03 327.67 353.06 327.34 350 327 C349.91363281 327.77085937 349.82726562 328.54171875 349.73828125 329.3359375 C349.52751953 330.84027344 349.52751953 330.84027344 349.3125 332.375 C349.18488281 333.37273437 349.05726563 334.37046875 348.92578125 335.3984375 C348.62027344 336.25695312 348.31476562 337.11546875 348 338 C346.35 338.66 344.7 339.32 343 340 C345.31 346.6 347.62 353.2 350 360 C350.66 360 351.32 360 352 360 C354.29566631 353.11300107 352.8757018 347.0872679 350.6796875 340.36328125 C349.74657564 337.1188406 349.59056366 334.34373012 350 331 C351.25 329 351.25 329 353 328 C355.33714145 328.14607134 356.58036416 328.66545698 358.40625 330.12109375 C360.66551219 332.78458668 362.04774064 335.79034627 363.5 338.9375 C363.80752197 339.59758057 364.11504395 340.25766113 364.43188477 340.93774414 C367.06872239 346.78574525 368.76846074 352.70155638 370 359 C374.02323036 355.71144649 374.9664708 350.97746009 376.62109375 346.2265625 C378.03575225 342.91634177 379.52299195 340.60230418 382 338 C384.6875 337.625 384.6875 337.625 387 338 C388 339 388 339 388.25 342.75 C388.13661641 351.65061216 386.07513895 362.51161055 381 370 C376.25700788 374.55549463 371.69420501 376.54261967 365.56640625 378.671875 C362.14598712 379.93092499 359.63739326 381.16046362 356.94140625 383.64453125 C353.49468226 386.40465683 351.78578254 386.62076131 347.4375 386.6875 C343.07516326 386.78512591 339.99575553 387.26212003 336 389 C331.85135101 389.26480738 328.07398593 388.76387236 324 388 C323.10023438 387.88527344 322.20046875 387.77054688 321.2734375 387.65234375 C317.48392218 386.89715394 314.13379595 385.56543614 310.625 384 C309.91859375 383.69094727 309.2121875 383.38189453 308.484375 383.06347656 C304.40498241 381.23246805 300.59215027 379.20364733 296.79443359 376.85058594 C288.63929419 371.8487671 280.0429507 368.74706695 271 365.75 C239.35702099 355.24995956 209.92752361 342.99296913 183 323 C182.41766602 322.56848633 181.83533203 322.13697266 181.23535156 321.69238281 C171.09116695 314.09550137 166.00920444 306.43938999 162.15966797 294.36401367 C159.74069995 286.78412594 156.68842594 279.73034601 153.25 272.5625 C145.06311889 255.13578275 138.55798808 237.42136201 133 219 C122.30086777 249.44289169 112.64487219 284.57760475 120.3046875 316.76953125 C121.1611578 321.06766539 121.07436299 325.27047913 121.06079102 329.63891602 C121.06871447 344.35277553 124.94106492 355.9955655 130.984375 369.32885742 C132.08128282 372.21377771 132.58807113 374.94775257 133 378 C133.98057373 377.80889648 134.96114746 377.61779297 135.97143555 377.42089844 C137.35986135 377.15038074 138.74828927 376.87987385 140.13671875 376.609375 C140.87912811 376.46471298 141.62153748 376.32005096 142.38644409 376.17100525 C146.48700184 375.37229046 150.58784817 374.57509903 154.68920898 373.78051758 C156.34749804 373.45917062 158.00578257 373.13780031 159.6640625 372.81640625 C160.48211868 372.65787674 161.30017487 372.49934723 162.14302063 372.33601379 C166.56469869 371.47768559 170.98327818 370.60623932 175.3984375 369.71484375 C176.7428894 369.44752441 176.7428894 369.44752441 178.11450195 369.17480469 C179.64044585 368.87104643 181.16526416 368.56150588 182.68823242 368.24316406 C197.68767536 365.29042297 212.94064742 364.62674089 228.18847656 364.62939453 C230.99865571 364.6250021 233.80728137 364.58843575 236.6171875 364.55078125 C255.57563847 364.43299347 283.52840553 366.95404066 298 381 C305.19657572 390.15097573 306.26833532 401.51277144 306.4375 412.75 C306.45981689 413.63719727 306.48213379 414.52439453 306.50512695 415.43847656 C306.4699359 425.60013167 302.0806769 431.54031544 295.25 438.6875 C294.37601563 439.64366211 294.37601563 439.64366211 293.484375 440.61914062 C287.16411791 447.33441379 280.46933393 451.18552508 271.75 454 C270.24006228 454.51190134 268.73094704 455.02623499 267.22265625 455.54296875 C266.49578613 455.79095215 265.76891602 456.03893555 265.02001953 456.29443359 C258.74007297 458.4879368 252.67649898 461.20490185 246.66015625 464.03125 C229.18319202 472.18716664 210.85493629 478.79952608 192 483 C191.08347656 483.20882813 190.16695312 483.41765625 189.22265625 483.6328125 C183.17840237 484.65726231 179.48637373 483.29335797 174.2265625 480.2265625 C166.82775303 476.15072711 158.48887542 477.90031201 150.75 480 C143.76018659 481.71581682 137.07058215 482.41202891 129.875 482.4375 C129.01100586 482.44716797 128.14701172 482.45683594 127.25683594 482.46679688 C123.18966269 482.41309439 119.93961669 482.13277877 116.20703125 480.47265625 C109.67429682 477.7269787 102.28097806 478.88262342 95.34960938 479.1171875 C87.10428149 479.28498388 79.95315341 478.09300645 72 476 C70.27370994 475.65207602 68.54492853 475.31594279 66.8125 475 C56.09292864 472.85264997 46.77736986 468.75832 37 464 C37 463.34 37 462.68 37 462 C38.51630005 461.39696045 38.51630005 461.39696045 40.06323242 460.78173828 C66.53745944 450.23399311 91.51793795 439.83952209 115.24707031 423.84423828 C127.09662122 415.90600597 139.13657812 408.19887356 152 402 C152.62455078 401.69755371 153.24910156 401.39510742 153.89257812 401.08349609 C166.70955323 395.02097634 180.19336397 391.97275462 194 389 C194.80405273 388.82452637 195.60810547 388.64905273 196.43652344 388.46826172 C203.60102699 386.91696863 210.6960807 385.64069468 218 385 C176.95180295 386.49266171 143.18013917 400.24496417 109.921875 423.55859375 C99.98632927 430.48679207 90.24418432 436.93093059 79.22167969 441.97070312 C76.65410661 443.16025127 74.11266019 444.39809112 71.5703125 445.640625 C66.6866646 448.02287229 61.78181399 450.35522258 56.85986328 452.65722656 C54.98934452 453.53547935 53.12291726 454.42251338 51.26123047 455.31933594 C48.72850327 456.53440795 46.18079191 457.70938886 43.625 458.875 C42.88338623 459.23916016 42.14177246 459.60332031 41.37768555 459.97851562 C37.32388013 461.77100523 34.77534601 462.29202912 30.49609375 460.92578125 C28.98566455 460.31196576 27.4864696 459.66975664 26 459 C25.29423828 458.70931641 24.58847656 458.41863281 23.86132812 458.11914062 C21.70209365 457.21995803 19.56926966 456.27488121 17.4375 455.3125 C16.66301514 454.96509766 15.88853027 454.61769531 15.09057617 454.25976562 C7.94090024 451.0241565 0.90424861 447.58659722 -6.07080078 443.99121094 C-7.98819389 443.00606591 -9.91363592 442.03808333 -11.83984375 441.0703125 C-20.85169495 436.47696627 -28.88345087 431.01021966 -37 425 C-47.82587726 417.07964851 -59.21675855 410.38861327 -71 404 C-71.72703125 403.60361328 -72.4540625 403.20722656 -73.203125 402.79882812 C-95.88911956 390.65489401 -122.55020338 385.82869482 -148 384 C-147.38817871 384.08975098 -146.77635742 384.17950195 -146.14599609 384.27197266 C-125.69964434 387.32883738 -105.95454834 391.5530861 -87 400 C-86.00589111 400.43650879 -86.00589111 400.43650879 -84.99169922 400.88183594 C-71.22668107 406.96173412 -58.0499312 414.16789757 -45.82421875 422.96875 C-25.98047109 437.24087833 -6.12840752 448.66056274 16.25535583 458.44924927 C20.71556853 460.4093835 25.13187087 462.45013401 29.53125 464.54296875 C53.7484999 476.05923479 74.98022671 482.78398447 102.01708984 481.88989258 C107.67986064 481.75216829 111.85686129 482.02552629 117.03930664 484.30126953 C120.87369368 485.66772648 124.84739176 485.48256835 128.875 485.4375 C129.78540039 485.43427734 130.69580078 485.43105469 131.63378906 485.42773438 C138.62037567 485.28698341 145.13720345 484.25152984 151.87451172 482.42358398 C158.92962945 480.53318933 165.61350077 479.86942995 172.4375 482.9375 C173.26121094 483.29714844 174.08492187 483.65679688 174.93359375 484.02734375 C176.29668317 484.66894917 177.65250743 485.32625372 179 486 C180.60173045 486.15308574 182.20665105 486.27388207 183.8125 486.375 C189.16812383 486.88432446 192.25380563 487.95273764 195.8125 492.125 C197.4728497 496.14479402 197.71604207 499.71153065 197 504 C194.94161475 507.33600367 193.2606736 508.8262176 190 511 C190.825 511.556875 191.65 512.11375 192.5 512.6875 C195 515 195 515 195.5 517.5625 C194.93215055 520.33076608 194.18476274 521.27039616 192 523 C192.33 523.33 192.66 523.66 193 524 C193.25 526.9375 193.25 526.9375 193 530 C192.01 530.66 191.02 531.32 190 532 C189.7497843 535.08365871 189.7497843 535.08365871 190 538 C188.68 538 187.36 538 186 538 C186.020625 538.804375 186.04125 539.60875 186.0625 540.4375 C186 543 186 543 185 544 C182.77596474 544.18358072 180.54367379 544.26893134 178.3125 544.3125 C177.09175781 544.34988281 175.87101562 544.38726563 174.61328125 544.42578125 C170.71959359 544.25888985 167.29565287 543.29308875 163.5703125 542.171875 C155.33754359 539.6940727 147.04007781 538.30064083 138.5625 536.9375 C135.58401967 536.45031242 132.60630817 535.95857625 129.62890625 535.46484375 C128.90494659 535.34522781 128.18098694 535.22561188 127.43508911 535.10237122 C118.83820045 533.66540726 110.31246886 531.90335719 101.78125 530.12109375 C94.70491402 528.61447814 94.70491402 528.61447814 87.53125 527.75390625 C78.77695616 527.12444928 72.42828628 524.59137138 64.625 520.6875 C55.195261 515.97300997 46.2792732 512.37394938 36 510 C34.77909668 509.71640625 33.55819336 509.4328125 32.30029297 509.140625 C28.03786067 508.15749537 23.77035134 507.19809867 19.5 506.25 C18.8010965 506.09470825 18.10219299 505.9394165 17.3821106 505.77941895 C9.94036315 504.13811265 2.59383565 502.71314659 -5 502 C-6.3585429 501.70710958 -7.71341282 501.39624749 -9.0625 501.0625 C-19.71503151 498.61529681 -30.72699322 497.92031813 -41.58837891 496.94311523 C-54.06472318 495.82008126 -66.41220842 494.5079053 -78.76171875 492.36621094 C-82.01774774 491.83348368 -85.28632416 491.41062883 -88.55688477 490.9777832 C-110.05999366 488.09407162 -130.5037283 483.10472725 -151 476 C-151.8755957 475.69803711 -152.75119141 475.39607422 -153.65332031 475.08496094 C-162.96646522 471.84292878 -172.0477766 468.22546695 -181.01245117 464.11669922 C-185.14228627 462.23193622 -189.28942471 460.47298629 -193.52734375 458.84375 C-204.93885963 454.4397841 -214.50558986 449.79160832 -224 442 C-224.77778809 441.38886353 -224.77778809 441.38886353 -225.57128906 440.76538086 C-233.17564976 434.69064655 -237.85984873 427.15681686 -239.625 417.625 C-240.91865018 405.11971497 -239.10209666 393.61592225 -232 383 C-226.99642593 377.41574035 -220.57791316 374.02857509 -213.9375 370.75 C-213.3086792 370.43256836 -212.6798584 370.11513672 -212.03198242 369.78808594 C-197.93433041 363.25691211 -183.39301305 362.39515071 -168.10791016 362.58837891 C-165.13538957 362.62487245 -162.16412798 362.62939639 -159.19140625 362.62890625 C-135.89905482 362.7138092 -114.31649914 366.27657879 -91.8125 372.0625 C-90.85633789 372.30774414 -89.90017578 372.55298828 -88.91503906 372.80566406 C-83.45848972 374.24240793 -78.26589164 375.97956969 -73 378 C-71.01043215 378.39080797 -69.01193023 378.74850872 -67 379 C-66.63068359 377.15148437 -66.63068359 377.15148437 -66.25390625 375.265625 C-64.92338776 369.27770566 -62.93180535 363.54383164 -60.9375 357.75 C-60.21465039 355.64158203 -59.4944959 353.53223769 -58.77734375 351.421875 C-58.46015381 350.49987305 -58.14296387 349.57787109 -57.81616211 348.62792969 C-56.56874945 344.61143258 -55.89063378 340.82139234 -55.7890625 336.62109375 C-55.76255615 335.79230713 -55.7360498 334.96352051 -55.70874023 334.10961914 C-55.68110596 333.22781982 -55.65347168 332.34602051 -55.625 331.4375 C-55.34651647 324.03991776 -54.64903509 316.86411204 -53.4375 309.5625 C-49.0444757 282.20068479 -54.7623068 253.85268759 -64.22705078 228.12841797 C-65.20475461 225.43618109 -66.11283861 222.72327651 -67 220 C-67.1858667 220.648479 -67.3717334 221.29695801 -67.56323242 221.96508789 C-68.43471969 224.99850815 -69.31110347 228.03049461 -70.1875 231.0625 C-70.47947266 232.08150391 -70.77144531 233.10050781 -71.07226562 234.15039062 C-74.84660321 247.17794292 -79.08817174 259.68331337 -84.6473999 272.04067993 C-90.44410732 284.91855824 -90.44410732 284.91855824 -94.875 298.3125 C-100.00294836 316.04984377 -118.20130779 327.58485974 -133.59838867 336.27148438 C-144.86850839 342.40820779 -156.82417424 346.9965104 -168.74267578 351.69970703 C-171.72744215 352.89119749 -174.6922735 354.11975519 -177.65234375 355.37109375 C-185.02847885 358.46634346 -191.96956548 361.20705076 -199.875 362.5625 C-211.18259728 364.50618429 -220.32637341 370.44815992 -229.73925781 376.64501953 C-238.55496489 382.39772575 -247.24099794 387.63528807 -258 388 C-258.33 388.33 -258.66 388.66 -259 389 C-260.8203125 388.9140625 -260.8203125 388.9140625 -263.125 388.625 C-263.9396875 388.52574219 -264.754375 388.42648437 -265.59375 388.32421875 C-267.60757993 388.05287478 -269.61700278 387.74908578 -271.625 387.4375 C-275.00562885 386.87469308 -275.00562885 386.87469308 -278.4375 387.3125 C-282.22557025 386.98021314 -282.7057985 386.68137079 -285.4375 384.375 C-289.91209058 380.64030235 -294.81715128 378.99411801 -300.27709961 377.18115234 C-305.08819221 375.53686225 -309.42184019 373.97895084 -311.91235352 369.27783203 C-312.76024515 367.24906595 -313.4893569 365.2098657 -314.1875 363.125 C-314.43435547 362.43019531 -314.68121094 361.73539063 -314.93554688 361.01953125 C-315.41803797 359.65311646 -315.89111593 358.28333568 -316.35400391 356.91015625 C-316.93074784 355.20477283 -317.54309238 353.5115246 -318.16015625 351.8203125 C-319.0029889 348.98996287 -319.26805476 346.69292604 -319.25 343.75 C-319.25773438 342.47382812 -319.25773438 342.47382812 -319.265625 341.171875 C-319 339 -319 339 -317 337 C-314.6875 336.875 -314.6875 336.875 -312 338 C-307.78187325 342.89150241 -303 351.44920968 -303 358 C-301.68 358.33 -300.36 358.66 -299 359 C-298.99742187 358.45214844 -298.99484375 357.90429688 -298.9921875 357.33984375 C-298.52680706 347.79954468 -294.6760783 339.14202574 -290.30859375 330.75 C-288.8103922 327.60154062 -288.92185415 325.43841723 -289 322 C-288.34 321.34 -287.68 320.68 -287 320 C-280.81783458 320 -276.13999476 322.75707597 -270.76953125 325.625 C-266.01676132 327.98462625 -262.17529935 328.09763 -256.875 328.25 C-248.18300963 328.69328624 -241.71682679 331.18410016 -235.375 337.1875 C-233 340 -233 340 -233 342 C-212.29267233 329.76108257 -195.6930463 315.28822314 -180 297 C-171.16612341 286.82517575 -162.27124682 278.56765761 -150.5 271.75 C-144.93539293 268.51289685 -142.12259331 265.07411495 -140 259 C-139.64920434 256.87943679 -139.36888466 254.74660298 -139.140625 252.609375 C-138.99778076 251.35487549 -138.85493652 250.10037598 -138.70776367 248.80786133 C-138.63383392 248.14638092 -138.55990417 247.48490051 -138.48373413 246.80337524 C-135.9764081 224.77629178 -132.23769928 200.81571202 -121.91967773 180.91650391 C-120.71579173 178.40774227 -120.76938863 176.45838504 -120.8125 173.6875 C-120.81894531 172.78386719 -120.82539063 171.88023437 -120.83203125 170.94921875 C-120.95622897 167.94324236 -120.95622897 167.94324236 -121.49560547 164.7722168 C-124.97058549 138.78387393 -122.36779638 112.47401979 -107.125 90.5625 C-96.42121434 77.52805133 -84.08743435 72.49566904 -68.41308594 67.9543457 C-34.02912632 58.04846094 -34.02912632 58.04846094 -6.75 36.75 C-6.29109375 36.06421875 -5.8321875 35.3784375 -5.359375 34.671875 C-1.3876798 26.86543962 -0.5044658 19.63080853 -0.3125 10.9375 C-0.27833984 9.88111328 -0.24417969 8.82472656 -0.20898438 7.73632812 C-0.12730705 5.15765843 -0.05790057 2.57929438 0 0 Z " fill="#0D0D0C" transform="translate(479,303)"/>
<path d="M0 0 C16.97706878 -0.3040669 27.58982963 4.09756107 40.48828125 15.1171875 C41.22433594 15.70757812 41.96039062 16.29796875 42.71875 16.90625 C52.73216253 25.13490795 55.99375344 35.0615044 57.29638672 47.71020508 C57.61622735 51.72204834 57.67894789 55.71897123 57.67578125 59.7421875 C57.67642578 60.60231445 57.67707031 61.46244141 57.67773438 62.34863281 C57.614845 70.06401584 56.77858108 77.51363495 55.48828125 85.1171875 C56.27203125 85.0759375 57.05578125 85.0346875 57.86328125 84.9921875 C60.48828125 85.1171875 60.48828125 85.1171875 62.48828125 87.1171875 C63.63285129 94.64725357 62.37305158 101.87149852 60.36328125 109.1171875 C60.08182251 110.19335327 60.08182251 110.19335327 59.79467773 111.29125977 C58.20107679 116.56994648 56.12809967 119.09481214 51.48828125 122.1171875 C50.16828125 122.1171875 48.84828125 122.1171875 47.48828125 122.1171875 C47.49730469 122.67664063 47.50632812 123.23609375 47.515625 123.8125 C47.11925375 134.53175727 42.03058446 143.91347026 34.73828125 151.5546875 C23.85705833 161.63850782 14.49557671 165.76271318 -0.0546875 165.421875 C-10.32673978 164.90345234 -17.0254664 159.79548007 -24.51171875 153.1171875 C-25.48818359 152.26447266 -25.48818359 152.26447266 -26.484375 151.39453125 C-35.39484367 143.1107329 -38.56782844 133.95104603 -40.51171875 122.1171875 C-41.41921875 122.0346875 -42.32671875 121.9521875 -43.26171875 121.8671875 C-47.0429119 120.99460447 -48.18899324 120.17989636 -50.51171875 117.1171875 C-53.73408817 109.75745487 -54.86864282 102.32421219 -54.88671875 94.3671875 C-54.88833008 93.67592773 -54.88994141 92.98466797 -54.89160156 92.27246094 C-54.78162583 87.38709458 -54.78162583 87.38709458 -52.51171875 85.1171875 C-49.88671875 84.9921875 -49.88671875 84.9921875 -47.51171875 85.1171875 C-47.65174316 84.34624756 -47.79176758 83.57530762 -47.93603516 82.78100586 C-51.18337676 63.60274038 -53.08340618 40.70678055 -42.32421875 23.6171875 C-39.27444274 19.61394833 -35.98777965 17.10733996 -31.69140625 14.546875 C-29.45545634 13.0802842 -27.91643116 11.5387688 -26.13671875 9.5546875 C-19.07093777 2.16102805 -9.80739332 0.32727675 0 0 Z " fill="#0D0D0C" transform="translate(508.51171875,151.8828125)"/>
<path d="M0 0 C1.20696533 0.20995605 2.41393066 0.41991211 3.6574707 0.63623047 C5.03864444 0.87948446 6.41974426 1.12315837 7.80078125 1.3671875 C8.91888184 1.56429321 8.91888184 1.56429321 10.05957031 1.76538086 C14.42475876 2.53711419 18.786467 3.32549434 23.14572144 4.13002014 C38.83061924 7.0163737 54.40381225 9.44905559 70.3062439 10.72210693 C82.19349788 11.67384139 93.99183355 13.04953805 105.8125 14.625 C106.64899078 14.73554718 107.48548157 14.84609436 108.34732056 14.95999146 C110.71773297 15.27436424 113.08751919 15.59297964 115.45703125 15.9140625 C116.16275269 16.00873306 116.86847412 16.10340363 117.59558105 16.20094299 C120.78302455 16.64101182 123.90069633 17.12381928 127 18 C127 18.66 127 19.32 127 20 C126.1028125 20.20753906 125.205625 20.41507813 124.28125 20.62890625 C123.0334375 20.93699219 121.785625 21.24507812 120.5 21.5625 C119.2934375 21.85253906 118.086875 22.14257812 116.84375 22.44140625 C113.38495807 23.42636781 110.2402982 24.80062636 106.99461365 26.34165955 C95.29090053 31.83133792 82.97261601 34.5441054 70.4375 37.5 C65.97565775 38.56390056 61.51619422 39.63721692 57.05859375 40.71875 C55.96928558 40.98236328 54.87997742 41.24597656 53.75765991 41.51757812 C45.28310858 43.60317481 36.94120215 46.02529126 28.62364197 48.66589355 C20.32222269 51.29195004 12.74903788 53.31814683 4 53 C3.7525 52.360625 3.505 51.72125 3.25 51.0625 C2.19352316 48.81723287 2.19352316 48.81723287 -0.0625 48.3125 C-0.701875 48.209375 -1.34125 48.10625 -2 48 C-3 47 -3 47 -3.0625 44.4375 C-3.041875 43.633125 -3.02125 42.82875 -3 42 C-3.61875 41.79375 -4.2375 41.5875 -4.875 41.375 C-7.84673559 39.45211226 -7.98522058 37.31494612 -9 34 C-9.515625 33.525625 -10.03125 33.05125 -10.5625 32.5625 C-12.9449588 29.97287087 -12.88019604 27.41441292 -13 24 C-11.5625 21.5625 -11.5625 21.5625 -10 20 C-10.598125 19.9175 -11.19625 19.835 -11.8125 19.75 C-14.76224781 18.73865789 -15.54953762 17.75587853 -17 15 C-17.55425081 10.72435092 -17.3051626 8.56673055 -15.25 4.75 C-10.3191435 -1.27660239 -7.54782548 -1.33461089 0 0 Z " fill="#0E0E0E" transform="translate(363,792)"/>
<path d="M0 0 C-3.80244959 2.53496639 -7.38600289 2.74972728 -11.8125 3.3125 C-44.58464703 7.89838402 -72.43989508 18.81011054 -100 37 C-117.52517512 48.50026788 -134.68820442 58.76972094 -154 67 C-155.15081055 67.49064941 -156.30162109 67.98129883 -157.48730469 68.48681641 C-161.17147568 70.05131981 -164.86591347 71.59005375 -168.5625 73.125 C-169.74674561 73.62298096 -170.93099121 74.12096191 -172.15112305 74.6340332 C-173.2575415 75.08738037 -174.36395996 75.54072754 -175.50390625 76.0078125 C-176.49205322 76.41660645 -177.4802002 76.82540039 -178.49829102 77.24658203 C-181 78 -181 78 -184 77 C-180.82533862 74.88355908 -177.55260775 73.35832276 -174.0859375 71.8046875 C-173.40324295 71.49613327 -172.7205484 71.18757904 -172.01716614 70.86967468 C-170.55857831 70.21058181 -169.09950215 69.55256877 -167.63998413 68.89553833 C-164.6122188 67.53131218 -161.58837649 66.15850061 -158.5643158 64.78608704 C-153.19954859 62.35155628 -147.83165798 59.92441235 -142.45703125 57.51171875 C-134.08539067 53.71653856 -126.49902381 49.34555573 -119 44 C-104.08860017 33.57935427 -89.21243131 23.63995881 -72.74121094 15.83447266 C-71.24455542 15.11720281 -69.76489906 14.36465269 -68.2890625 13.60546875 C-48.15567009 3.60228482 -22.35156511 -0.62894014 0 0 Z " fill="#ECECED" transform="translate(700,687)"/>
<path d="M0 0 C0.74121094 0.50789062 1.48242188 1.01578125 2.24609375 1.5390625 C5.22152561 3.11751855 5.93524654 3.2081053 9.0625 2.375 C11.0115625 2.189375 11.0115625 2.189375 13 2 C15.5 4.1875 15.5 4.1875 17 7 C17 8.32 17 9.64 17 11 C17.763125 11.0825 18.52625 11.165 19.3125 11.25 C22.6998763 12.19531432 23.24274956 12.98549027 25 16 C25.66302188 19.20285173 26.1700672 22.35471617 26.55273438 25.59960938 C26.85299899 27.84679521 26.85299899 27.84679521 28 31 C30.96172374 33.03253564 30.96172374 33.03253564 34 34 C32.3125 34.75 32.3125 34.75 30 35 C27.07520712 33.46796564 25.39552298 32.15975382 24.30859375 28.97265625 C23.80580335 26.65665324 23.40354567 24.33507981 23 22 C22.38623488 19.64794904 21.69406565 17.33007755 21 15 C19.68 15 18.36 15 17 15 C15.61930689 23.11157205 14.84949225 29.6012688 19 37 C18.67 37.66 18.34 38.32 18 39 C14.02264467 34.25283396 12.87106664 31.3998729 12.90234375 25.23828125 C12.90556641 24.12001953 12.90878906 23.00175781 12.91210938 21.84960938 C12.92048828 20.68236328 12.92886719 19.51511719 12.9375 18.3125 C12.94201172 17.13365234 12.94652344 15.95480469 12.95117188 14.74023438 C12.96296727 11.82677211 12.9794273 8.91341137 13 6 C11.35 6 9.7 6 8 6 C5.42383482 12.2638737 3.05764921 18.54646385 1 25 C-0.9375 24.625 -0.9375 24.625 -3 24 C-5.65732915 18.6853417 -3.56667602 12.45588806 -2 7.0625 C-1.80921875 6.37865234 -1.6184375 5.69480469 -1.421875 4.99023438 C-0.95595063 3.32455474 -0.47911589 1.66193325 0 0 Z " fill="#DCDCDC" transform="translate(199,639)"/>
<path d="M0 0 C2.375 0.875 2.375 0.875 4.375 2.875 C3.385 2.875 2.395 2.875 1.375 2.875 C-1.39583806 3.34629985 -1.39583806 3.34629985 -3.625 4.875 C-4.00011183 9.28256402 -3.51432396 12.54926103 -2.125 16.75 C-0.38827522 22.14948558 0.76733936 27.79158181 -1.64453125 33.1328125 C-1.96808594 33.70773437 -2.29164063 34.28265625 -2.625 34.875 C-5.625 33.875 -5.625 33.875 -6.51635742 32.14086914 C-6.75201416 31.40473389 -6.9876709 30.66859863 -7.23046875 29.91015625 C-7.49150391 29.11029297 -7.75253906 28.31042969 -8.02148438 27.48632812 C-8.28251953 26.64521484 -8.54355469 25.80410156 -8.8125 24.9375 C-9.08513672 24.10025391 -9.35777344 23.26300781 -9.63867188 22.40039062 C-11.625 16.21240602 -11.625 16.21240602 -11.625 13.875 C-10.985625 13.71 -10.34625 13.545 -9.6875 13.375 C-9.006875 12.88 -8.32625 12.385 -7.625 11.875 C-7.36662966 9.87262987 -7.11441964 7.86798594 -6.953125 5.85546875 C-6.625 3.875 -6.625 3.875 -4.875 1.3125 C-2.625 -0.125 -2.625 -0.125 0 0 Z " fill="#EEEEEE" transform="translate(833.625,629.125)"/>
<path d="M0 0 C0.94875 0.845625 1.8975 1.69125 2.875 2.5625 C14.9956001 12.89561766 24.86659362 17.50285602 40.83349609 16.29736328 C50.23591139 15.00683569 57.51028681 8.45693686 64 2 C64.99 2.99 64.99 2.99 66 4 C56.10013381 13.66816719 46.99331677 19.01705081 33.1875 20.375 C20.13134579 19.93373833 10.55332335 11.96110279 1 4 C0.67 11.26 0.34 18.52 0 26 C-0.33 26 -0.66 26 -1 26 C-1.02886751 21.85418113 -1.04675327 17.70838784 -1.0625 13.5625 C-1.07087891 12.37849609 -1.07925781 11.19449219 -1.08789062 9.97460938 C-1.09111328 8.84990234 -1.09433594 7.72519531 -1.09765625 6.56640625 C-1.10289307 5.52427979 -1.10812988 4.48215332 -1.11352539 3.40844727 C-1 1 -1 1 0 0 Z " fill="#E6E5E6" transform="translate(479,300)"/>
<path d="M0 0 C0.33 0 0.66 0 1 0 C1.96866794 14.28785207 -4.26046778 26.9887372 -13.0390625 37.9140625 C-16.77612755 41.88934683 -21.15778783 45.84387849 -26.7734375 46.15234375 C-27.50820313 46.10207031 -28.24296875 46.05179687 -29 46 C-28.34 45.484375 -27.68 44.96875 -27 44.4375 C-26.01 43.633125 -25.02 42.82875 -24 42 C-23.37222656 41.50242187 -22.74445312 41.00484375 -22.09765625 40.4921875 C-9.50085699 30.09559694 -4.78082957 15.07487111 0 0 Z " fill="#ECECEC" transform="translate(619,462)"/>
<path d="M0 0 C0.77730469 0.47050781 1.55460938 0.94101562 2.35546875 1.42578125 C4.53737973 2.72461452 6.714261 3.899459 9 5 C8.56042969 5.66386719 8.12085938 6.32773437 7.66796875 7.01171875 C5.71318037 10.51385718 4.51923759 14.00270911 3.3125 17.8125 C3.08755859 18.50537109 2.86261719 19.19824219 2.63085938 19.91210938 C2.08171091 21.60629082 1.54008138 23.30290633 1 25 C-0.9375 24.625 -0.9375 24.625 -3 24 C-5.65732915 18.6853417 -3.56667602 12.45588806 -2 7.0625 C-1.80921875 6.37865234 -1.6184375 5.69480469 -1.421875 4.99023438 C-0.95595063 3.32455474 -0.47911589 1.66193325 0 0 Z " fill="#F0F0F0" transform="translate(199,639)"/>
<path d="M0 0 C2.21702145 3.32553218 3.41988299 6.7068219 4.75 10.4375 C11.69992741 29.49568056 11.69992741 29.49568056 26.5 42.5625 C27.655 43.036875 28.81 43.51125 30 44 C30 44.33 30 44.66 30 45 C23.43829324 44.72659555 19.83635786 42.33091882 15 38 C14.4740625 37.52949219 13.948125 37.05898438 13.40625 36.57421875 C4.9536007 27.8742845 0.28605797 14.29568102 -0.125 2.375 C-0.08375 1.59125 -0.0425 0.8075 0 0 Z " fill="#EDECED" transform="translate(405,463)"/>
<path d="M0 0 C2.3125 0.0625 2.3125 0.0625 5 1 C8.99691333 7.0642823 8.67546011 13.95096756 8 21 C7.24622429 23.90246968 6.28307455 26.27346659 5 29 C4.01 29 3.02 29 2 29 C2.66 28.01 3.32 27.02 4 26 C4.27543845 23.57954562 4.27543845 23.57954562 4.1953125 20.89453125 C4.18886719 19.91162109 4.18242188 18.92871094 4.17578125 17.91601562 C4.15902344 16.89185547 4.14226563 15.86769531 4.125 14.8125 C4.11597656 13.77673828 4.10695313 12.74097656 4.09765625 11.67382812 C4.0740786 9.11565315 4.0411703 6.55794252 4 4 C2.68 4 1.36 4 0 4 C-0.15855469 5.01320313 -0.31710937 6.02640625 -0.48046875 7.0703125 C-2.72496874 20.29524239 -2.72496874 20.29524239 -8 25 C-8.99 24.67 -9.98 24.34 -11 24 C-10.21625 23.443125 -9.4325 22.88625 -8.625 22.3125 C-4.91958058 18.70049451 -5.10776456 14.02049357 -4.53515625 9.1171875 C-3.84733186 5.11073597 -2.6102431 3.04528361 0 0 Z " fill="#DADBDB" transform="translate(809,649)"/>
<path d="M0 0 C-3.80177088 2.53451392 -7.38613697 2.75147733 -11.8125 3.3125 C-22.39289579 4.75866367 -32.70004581 7.07001112 -43.07080078 9.58862305 C-45 10 -45 10 -47 10 C-47 8.68 -47 7.36 -47 6 C-38.09128834 4.01559503 -29.17164395 2.51604949 -20.125 1.3125 C-19.16327881 1.18125732 -18.20155762 1.05001465 -17.21069336 0.91479492 C-11.42144383 0.16958461 -5.8365594 -0.12583958 0 0 Z " fill="#DFDFDF" transform="translate(700,687)"/>
<path d="M0 0 C0.66 0.33 1.32 0.66 2 1 C1 4 1 4 -1.84814453 5.50219727 C-3.1048666 6.03514588 -4.36687804 6.55572579 -5.6328125 7.06640625 C-6.30287323 7.34596664 -6.97293396 7.62552704 -7.66329956 7.91355896 C-9.0852543 8.50440428 -10.5094148 9.08996438 -11.93554688 9.6706543 C-14.099934 10.55228969 -16.257369 11.4493405 -18.4140625 12.34960938 C-19.79909577 12.92280229 -21.18450154 13.49509611 -22.5703125 14.06640625 C-23.52854416 14.46334435 -23.52854416 14.46334435 -24.50613403 14.86830139 C-28.62300778 16.5396157 -32.71755538 17.84793492 -37 19 C-37.33 18.34 -37.66 17.68 -38 17 C-37.45287354 16.76925781 -36.90574707 16.53851562 -36.34204102 16.30078125 C-33.74734625 15.20405739 -31.15460774 14.10282483 -28.5625 13 C-27.14650513 12.39792725 -27.14650513 12.39792725 -25.7019043 11.78369141 C-18.75969893 8.80937735 -11.91669454 5.66901608 -5.15649414 2.30078125 C-3.46440367 1.47653109 -1.73491404 0.72981624 0 0 Z " fill="#DDDDDD" transform="translate(554,746)"/>
<path d="M0 0 C12.1780384 0.46748708 24.04097782 2.79456197 36 5 C36 5.99 36 6.98 36 8 C29.97480231 7.29627836 24.06177714 6.30994459 18.10327148 5.16040039 C13.0626771 4.19198141 8.01293153 3.32095054 2.94140625 2.52734375 C1.98041016 2.26630859 1.98041016 2.26630859 1 2 C0.67 1.34 0.34 0.68 0 0 Z " fill="#D1D1D1" transform="translate(330,686)"/>
<path d="M0 0 C28.35792096 -0.20638953 28.35792096 -0.20638953 39 1 C39 1.66 39 2.32 39 3 C26.3141797 3.20100772 13.66894665 2.58707468 1 2 C0.67 1.34 0.34 0.68 0 0 Z " fill="#CECECE" transform="translate(439,378)"/>
<path d="M0 0 C0.495 0.99 0.495 0.99 1 2 C-3.0730403 2.97685365 -6.868207 3.11545444 -11.05078125 3.09765625 C-11.70958786 3.0962413 -12.36839447 3.09482635 -13.04716492 3.09336853 C-15.13565762 3.087805 -17.22404011 3.07525947 -19.3125 3.0625 C-20.73502449 3.05748028 -22.15755066 3.0529182 -23.58007812 3.04882812 C-27.05342077 3.03784757 -30.52669961 3.02060835 -34 3 C-34 2.67 -34 2.34 -34 2 C-22.5896331 0.08974426 -11.55030268 -0.22379488 0 0 Z " fill="#CECECF" transform="translate(585,378)"/>
<path d="M0 0 C-2.92001994 1.94667996 -4.08944774 2.34996311 -7.421875 2.81640625 C-8.28296875 2.94080078 -9.1440625 3.06519531 -10.03125 3.19335938 C-10.9284375 3.31517578 -11.825625 3.43699219 -12.75 3.5625 C-13.63171875 3.68818359 -14.5134375 3.81386719 -15.421875 3.94335938 C-17.94703836 4.30221816 -20.4733777 4.65158884 -23 5 C-25.33370415 5.3307979 -27.66684768 5.66532651 -30 6 C-27.54870702 2.8345508 -26.18662075 2.04074521 -22.20703125 1.171875 C-20.74416601 1.0119754 -19.27900278 0.87211557 -17.8125 0.75 C-17.05525635 0.67410645 -16.2980127 0.59821289 -15.51782227 0.52001953 C-10.32992946 0.02911497 -5.21115905 -0.18949669 0 0 Z " fill="#D2D2D2" transform="translate(700,687)"/>
<path d="M0 0 C0.42410156 0.37511719 0.84820312 0.75023437 1.28515625 1.13671875 C5.36517338 4.69664579 9.5513476 7.91317997 14 11 C13.34 11.66 12.68 12.32 12 13 C8.37 10.03 4.74 7.06 1 4 C0.67 11.26 0.34 18.52 0 26 C-0.33 26 -0.66 26 -1 26 C-1.02886751 21.85418113 -1.04675327 17.70838784 -1.0625 13.5625 C-1.07087891 12.37849609 -1.07925781 11.19449219 -1.08789062 9.97460938 C-1.09111328 8.84990234 -1.09433594 7.72519531 -1.09765625 6.56640625 C-1.10289307 5.52427979 -1.10812988 4.48215332 -1.11352539 3.40844727 C-1 1 -1 1 0 0 Z " fill="#AEAEAD" transform="translate(479,300)"/>
<path d="M0 0 C0.66 0 1.32 0 2 0 C2.31806054 7.7276932 2.32270836 13.93924474 -1 21 C-1.99 21 -2.98 21 -4 21 C-3.01 19.515 -3.01 19.515 -2 18 C-1.72406826 15.28904176 -1.5359851 12.65424749 -1.4375 9.9375 C-1.11924736 2.23849473 -1.11924736 2.23849473 0 0 Z " fill="#BABABB" transform="translate(815,657)"/>
<path d="M0 0 C0.66 0.33 1.32 0.66 2 1 C1 4 1 4 -1.58203125 5.38671875 C-2.64808594 5.81597656 -3.71414063 6.24523437 -4.8125 6.6875 C-5.87082031 7.12449219 -6.92914062 7.56148437 -8.01953125 8.01171875 C-11 9 -11 9 -15 9 C-15 8.34 -15 7.68 -15 7 C-12.54595776 5.80283341 -10.08748321 4.6170654 -7.625 3.4375 C-6.57699219 2.92413086 -6.57699219 2.92413086 -5.5078125 2.40039062 C-3.69947784 1.53969288 -1.85148044 0.76347564 0 0 Z " fill="#E9E9EA" transform="translate(554,746)"/>
<path d="M0 0 C4.64519217 1.91272619 8.18866324 3.78299487 11 8 C8.14942665 6.87704686 5.38840114 5.70552647 2.625 4.375 C-3.43880093 2.07493758 -8.03838628 2.6735166 -14 5 C-9.57415394 0.42662574 -6.45343432 -0.99705012 0 0 Z " fill="#DEDEDE" transform="translate(784,653)"/>
<path d="M0 0 C2.08432499 3.12648749 3.28558611 6.05730868 4.625 9.5625 C5.07101562 10.71878906 5.51703125 11.87507813 5.9765625 13.06640625 C7 16 7 16 7 18 C5.68 18 4.36 18 3 18 C2.49095343 16.12743583 1.99317545 14.25180659 1.5 12.375 C1.08234375 10.80878906 1.08234375 10.80878906 0.65625 9.2109375 C0.00881404 6.04312582 -0.1161292 3.22258533 0 0 Z " fill="#DEDEDE" transform="translate(405,463)"/>
<path d="M0 0 C0.33 0 0.66 0 1 0 C1.14695313 1.04800781 1.29390625 2.09601562 1.4453125 3.17578125 C1.67047742 4.5549164 1.89711757 5.93381127 2.125 7.3125 C2.2178125 8.00279297 2.310625 8.69308594 2.40625 9.40429688 C2.75360701 11.72408945 2.75360701 11.72408945 4 15 C6.96704492 17.0485357 6.96704492 17.0485357 10 18 C8.3125 18.75 8.3125 18.75 6 19 C3.04839706 17.45392227 1.42027839 16.08777937 0.203125 12.9375 C-0.94040464 8.36338143 -1.18864454 4.63571369 0 0 Z " fill="#DFDFE0" transform="translate(223,655)"/>
<path d="M0 0 C0.556875 0.19335938 1.11375 0.38671875 1.6875 0.5859375 C6.75117127 2.31374425 11.79322065 3.7693067 17 5 C17 5.66 17 6.32 17 7 C19.31 7 21.62 7 24 7 C24 7.33 24 7.66 24 8 C16.82817729 8.55167867 10.53552025 7.02501223 4 4 C1.640625 1.859375 1.640625 1.859375 0 0 Z " fill="#CCCCCC" transform="translate(492,312)"/>
<path d="M0 0 C2.875 1.5 2.875 1.5 5 3 C1.93466836 4.53266582 -1.26754272 4.10276471 -4.625 4.0625 C-5.33140625 4.05798828 -6.0378125 4.05347656 -6.765625 4.04882812 C-8.51045275 4.03703875 -10.255237 4.01910324 -12 4 C-8.43243703 0.09266913 -5.20589387 -0.41647151 0 0 Z " fill="#C5C5C6" transform="translate(255,650)"/>
<path d="M0 0 C4.38824732 0.10410076 7.44801995 1.26195956 11.3125 3.3125 C11.6425 3.9725 11.9725 4.6325 12.3125 5.3125 C6.3725 4.3225 0.4325 3.3325 -5.6875 2.3125 C-3.6875 0.3125 -3.6875 0.3125 0 0 Z " fill="#D9D9D9" transform="translate(357.6875,570.6875)"/>
<path d="M0 0 C0.33 0 0.66 0 1 0 C1.25287193 6.06892629 0.69832609 11.16200408 -1 17 C-1.99 16.01 -2.98 15.02 -4 14 C-3.52188823 12.22888156 -3.0424722 10.45811517 -2.5625 8.6875 C-2.29566406 7.70136719 -2.02882813 6.71523438 -1.75390625 5.69921875 C-1.21920575 3.78482474 -0.62855462 1.88566385 0 0 Z " fill="#D7D7D8" transform="translate(619,462)"/>
<path d="M0 0 C0.66 0.66 1.32 1.32 2 2 C-6.91 3.485 -6.91 3.485 -16 5 C-10.97657164 -0.02342836 -6.84790693 -0.44904308 0 0 Z " fill="#CBCBCC" transform="translate(675,571)"/>
<path d="M0 0 C2.375 0.875 2.375 0.875 4.375 2.875 C3.385 2.875 2.395 2.875 1.375 2.875 C-0.68214832 2.88882865 -0.68214832 2.88882865 -2.625 3.875 C-4.40879415 6.85852894 -4.40879415 6.85852894 -5.625 9.875 C-5.955 9.875 -6.285 9.875 -6.625 9.875 C-6.95228047 6.27491481 -7.02922813 4.45888508 -4.9375 1.4375 C-2.625 -0.125 -2.625 -0.125 0 0 Z " fill="#DBDADB" transform="translate(833.625,629.125)"/>
<path d="M0 0 C2.5 0.1875 2.5 0.1875 5 1 C7.78637633 5.1795645 6.79562512 7.14668677 6 12 C5.67 12 5.34 12 5 12 C4.67 9.36 4.34 6.72 4 4 C2.02 3.34 0.04 2.68 -2 2 C-1.34 1.34 -0.68 0.68 0 0 Z " fill="#AFAEB0" transform="translate(208,641)"/>
<path d="M0 0 C2.875 -0.125 2.875 -0.125 6 0 C8 2 8 2 8.125 4.625 C8.08375 5.40875 8.0425 6.1925 8 7 C7.01 6.67 6.02 6.34 5 6 C5 5.34 5 4.68 5 4 C4.360625 3.71125 3.72125 3.4225 3.0625 3.125 C1 2 1 2 0 0 Z " fill="#252523" transform="translate(830,624)"/>
<path d="M0 0 C0.66 0.33 1.32 0.66 2 1 C-0.97088618 4.99926986 -4.12948725 7.92118304 -8 11 C-8.66 10.67 -9.32 10.34 -10 10 C-6.7 6.7 -3.4 3.4 0 0 Z " fill="#272727" transform="translate(290,610)"/>
<path d="M0 0 C0.66 0.33 1.32 0.66 2 1 C1.67 1.99 1.34 2.98 1 4 C-2.0625 5.1875 -2.0625 5.1875 -5 6 C-5.33 5.01 -5.66 4.02 -6 3 C-4.03533587 1.93224776 -2.03144641 0.93446535 0 0 Z " fill="#DFDFDF" transform="translate(554,746)"/>
<path d="M0 0 C0.66 0 1.32 0 2 0 C2 3.3 2 6.6 2 10 C1.01 10 0.02 10 -1 10 C-0.67 6.7 -0.34 3.4 0 0 Z " fill="#D0D1D1" transform="translate(805,655)"/>
<path d="M0 0 C-5.52841596 4.76058041 -5.52841596 4.76058041 -9 5 C-9.66 4.34 -10.32 3.68 -11 3 C-9.73581754 2.30034557 -8.46334598 1.61565237 -7.1875 0.9375 C-6.47980469 0.55464844 -5.77210938 0.17179687 -5.04296875 -0.22265625 C-3 -1 -3 -1 0 0 Z " fill="#D8D8D9" transform="translate(535,312)"/>
<path d="M0 0 C4.455 1.98 4.455 1.98 9 4 C9 4.33 9 4.66 9 5 C2.25 4.125 2.25 4.125 0 3 C0 2.01 0 1.02 0 0 Z " fill="#CACACA" transform="translate(426,503)"/>
</svg>
